G75*
%IPPOS*%
%FSLAX44Y44*%
%MOIN*%
%ADD10C,0.00100*%
%ADD11C,0.00200*%
%ADD12C,0.00400*%
%ADD13C,0.00800*%
%ADD14C,0.01500*%
%ADD15C,0.02500*%
%ADD16C,0.04000*%
%ADD17C,0.15000*%
%ADD18C,0.50000*%
%ADD19C,0.30000*%
%ADD20C,16.16080*%
%ADD21C,0.01181*%
%ADD22C,0.01969*%
%LNGB-L1*%
%LPD*%
G54D10*
X5122Y2556D02*
X4726D01*
Y2584D01*
X4402D01*
Y2556D01*
X4143Y2555D01*
X4099Y2550D01*
X4055Y2540D01*
X3955Y2511D01*
X3749D01*
Y2403D01*
X3956Y2402D01*
X4076Y2368D01*
X4120Y2360D01*
X4165Y2357D01*
X5122D01*
Y2556D01*
X5117Y2551D02*
X4721D01*
Y2579D01*
X4407D01*
Y2551D01*
X4144Y2550D01*
X4100Y2545D01*
X4057Y2535D01*
X3955Y2506D01*
X3754D01*
Y2408D01*
X3958Y2407D01*
X4077Y2373D01*
X4121Y2365D01*
X4165Y2362D01*
X5117D01*
Y2551D01*
G54D11*
X5107Y2541D02*
X4711D01*
Y2569D01*
X4417D01*
Y2541D01*
X4145D01*
X4102Y2536D01*
X4059Y2526D01*
X3955Y2496D01*
X3764D01*
Y2418D01*
X3960Y2417D01*
X4079Y2382D01*
X4121Y2375D01*
X4165Y2372D01*
X5107D01*
Y2541D01*
G54D12*
X5087Y2521D02*
X4691D01*
Y2549D01*
X4437D01*
Y2521D01*
X4147D01*
X4107Y2516D01*
X4065Y2506D01*
X3955Y2476D01*
X3784D01*
Y2437D01*
X3966Y2436D01*
X4083Y2402D01*
X4122Y2395D01*
X4165Y2392D01*
X5087D01*
Y2521D01*
X3966Y2437D02*
X3955Y2475D01*
X3961Y2456D02*
X3784D01*
X5087Y2471D02*
X3784D01*
X4074Y2509D02*
X5087D01*
Y2433D02*
X3978D01*
G54D10*
X5122Y2556D02*
X4726D01*
Y2584D01*
X4402D01*
Y2556D01*
X4143Y2555D01*
X4099Y2550D01*
X4055Y2540D01*
X3955Y2511D01*
X3749D01*
Y2403D01*
X3956Y2402D01*
X4076Y2368D01*
X4120Y2360D01*
X4165Y2357D01*
X5122D01*
Y2556D01*
X6944D02*
X5289D01*
Y2357D01*
X6944D01*
Y2556D01*
X6939Y2551D02*
X5294D01*
Y2362D01*
X6939D01*
Y2551D01*
G54D11*
X6929Y2541D02*
X5304D01*
Y2372D01*
X6929D01*
Y2541D01*
G54D12*
X6909Y2521D02*
X5324D01*
Y2392D01*
X6909D01*
Y2521D01*
G54D13*
X6869Y2481D02*
X5364D01*
Y2432D01*
X6869D01*
Y2481D01*
X6869Y2457D02*
X5364D01*
G54D10*
X6944Y2556D02*
X5289D01*
Y2357D01*
X6944D01*
Y2556D01*
X4455Y8975D02*
X4460Y8997D01*
X4471Y9018D01*
X4488Y9034D01*
X4509Y9046D01*
X4531Y9050D01*
X6944D01*
Y9249D01*
X4350D01*
X4328Y9242D01*
X4312Y9232D01*
X4299Y9217D01*
X4290Y9200D01*
X4287Y9182D01*
Y2869D01*
X4726D01*
Y3176D01*
X4455D01*
Y8975D01*
X4450Y8976D02*
X4455Y8999D01*
X4468Y9021D01*
X4486Y9039D01*
X4508Y9051D01*
X4531Y9055D01*
X6939D01*
Y9244D01*
X4351Y9245D01*
X4331Y9238D01*
X4316Y9228D01*
X4304Y9215D01*
X4295Y9199D01*
X4292Y9182D01*
Y2874D01*
X4721D01*
Y3171D01*
X4449D01*
X4450Y8976D01*
G54D11*
X4440Y8979D02*
X4447Y9004D01*
X4461Y9028D01*
X4481Y9048D01*
X4506Y9061D01*
X4531Y9065D01*
X6929D01*
Y9234D01*
X4354Y9235D01*
X4337Y9230D01*
X4323Y9222D01*
X4313Y9210D01*
X4305Y9197D01*
X4302Y9182D01*
Y2884D01*
X4711D01*
Y3161D01*
X4439D01*
X4440Y8979D01*
G54D12*
X4421Y8984D02*
X4429Y9015D01*
X4447Y9043D01*
X4472Y9066D01*
X4502Y9080D01*
X4531Y9085D01*
X6909D01*
Y9214D01*
X4360Y9216D01*
X4347Y9213D01*
X4338Y9208D01*
X4330Y9201D01*
X4325Y9193D01*
X4322Y9182D01*
Y2904D01*
X4691D01*
Y3141D01*
X4419D01*
X4421Y8984D01*
X5616Y9215D02*
Y9085D01*
X5578D02*
Y9215D01*
X5540D02*
Y9085D01*
X5502D02*
Y9215D01*
X5464D02*
Y9085D01*
X5426D02*
Y9215D01*
X5388D02*
Y9085D01*
X5350D02*
Y9215D01*
X5312Y9215D02*
Y9085D01*
X5274D02*
Y9215D01*
X5236D02*
Y9085D01*
X5198D02*
Y9215D01*
X5160Y9215D02*
Y9085D01*
X5122D02*
Y9215D01*
X5084D02*
Y9085D01*
X5046D02*
Y9215D01*
X5008Y9216D02*
Y9085D01*
X4970D02*
Y9216D01*
X4932D02*
Y9085D01*
X4894D02*
Y9216D01*
X4856Y9216D02*
Y9085D01*
X4818D02*
Y9216D01*
X4780D02*
Y9085D01*
X4742D02*
Y9216D01*
X4704D02*
Y9085D01*
X4666Y3141D02*
Y2904D01*
Y9085D02*
Y9216D01*
X4628Y3141D02*
Y2904D01*
Y9085D02*
Y9216D01*
X4590Y3141D02*
Y2904D01*
Y9085D02*
Y9216D01*
X4552Y3141D02*
Y2904D01*
Y9085D02*
Y9216D01*
X4514Y3141D02*
Y2904D01*
Y9082D02*
Y9216D01*
X4476Y3141D02*
Y2904D01*
Y9067D02*
Y9216D01*
X4438Y3141D02*
Y2904D01*
Y9028D02*
Y9216D01*
X4400D02*
Y2904D01*
X4362D02*
Y9216D01*
X5654Y9215D02*
Y9085D01*
X5692D02*
Y9215D01*
X5730D02*
Y9085D01*
X5768D02*
Y9215D01*
X5806D02*
Y9085D01*
X5844D02*
Y9215D01*
X5882Y9215D02*
Y9085D01*
X5920D02*
Y9215D01*
X5958D02*
Y9085D01*
X5996D02*
Y9215D01*
X6034Y9215D02*
Y9085D01*
X6072D02*
Y9215D01*
X6110D02*
Y9085D01*
X6148D02*
Y9215D01*
X6186Y9215D02*
Y9085D01*
X6224D02*
Y9215D01*
X6262D02*
Y9085D01*
X6300D02*
Y9215D01*
X6338D02*
Y9085D01*
X6376D02*
Y9215D01*
X6414D02*
Y9085D01*
X6452D02*
Y9214D01*
X6490D02*
Y9085D01*
X6528D02*
Y9214D01*
X6566D02*
Y9085D01*
X6604D02*
Y9214D01*
X6642D02*
Y9085D01*
X6680D02*
Y9214D01*
X6718Y9214D02*
Y9085D01*
X6756D02*
Y9214D01*
X6794D02*
Y9085D01*
X6832D02*
Y9214D01*
X6870Y9214D02*
Y9085D01*
G54D10*
X4455Y8975D02*
X4460Y8997D01*
X4471Y9018D01*
X4488Y9034D01*
X4509Y9046D01*
X4531Y9050D01*
X6944D01*
Y9249D01*
X4350D01*
X4328Y9242D01*
X4312Y9232D01*
X4299Y9217D01*
X4290Y9200D01*
X4287Y9182D01*
Y2869D01*
X4726D01*
Y3176D01*
X4455D01*
Y8975D01*
X438Y14077D02*
Y13881D01*
X6551D01*
Y14077D01*
X438D01*
X443Y14072D02*
Y13886D01*
X6546D01*
Y14072D01*
X443D01*
G54D11*
X453Y14062D02*
Y13896D01*
X6536D01*
Y14062D01*
X453D01*
G54D12*
X473Y14042D02*
Y13916D01*
X6516D01*
Y14042D01*
X473D01*
G54D13*
X513Y14002D02*
Y13956D01*
X6476D01*
Y14002D01*
X513D01*
X6476Y13979D02*
X513D01*
G54D10*
X438Y14077D02*
Y13881D01*
X6551D01*
Y14077D01*
X438D01*
Y14240D02*
X6551D01*
Y16391D01*
X438D01*
Y14240D01*
X443Y14245D02*
X6546D01*
Y16386D01*
X443D01*
Y14245D01*
G54D11*
X453Y14255D02*
X6536D01*
Y16376D01*
X453D01*
Y14255D01*
G54D12*
X473Y14275D02*
X6516D01*
Y16356D01*
X473D01*
Y14275D01*
G54D13*
X513Y14315D02*
X6476D01*
Y16316D01*
X513D01*
Y14315D01*
G54D14*
X588Y14390D02*
X6401D01*
Y16241D01*
X588D01*
Y14390D01*
G54D15*
X713Y14515D02*
X6276D01*
Y16116D01*
X713D01*
Y14515D01*
G54D16*
X913Y14715D02*
X6076D01*
Y15916D01*
X913D01*
Y14715D01*
G54D17*
X1288Y15090D02*
X5701D01*
Y15541D01*
X1288D01*
Y15090D01*
X5701Y15316D02*
X1288D01*
G54D10*
X438Y14240D02*
X6551D01*
Y16391D01*
X438D01*
Y14240D01*
X2307Y2556D02*
X44D01*
Y2357D01*
X2307D01*
Y2556D01*
X2302Y2551D02*
X49D01*
Y2362D01*
X2302D01*
Y2551D01*
G54D11*
X2292Y2541D02*
X59D01*
Y2372D01*
X2292D01*
Y2541D01*
G54D12*
X2272Y2521D02*
X79D01*
Y2392D01*
X2272D01*
Y2521D01*
G54D13*
X2232Y2481D02*
X119D01*
Y2432D01*
X2232D01*
Y2481D01*
X2232Y2457D02*
X119D01*
G54D10*
X2307Y2556D02*
X44D01*
Y2357D01*
X2307D01*
Y2556D01*
X44Y8890D02*
Y2717D01*
X2889D01*
Y8827D01*
X2882Y8849D01*
X2871Y8865D01*
X2857Y8878D01*
X2840Y8886D01*
X2823Y8890D01*
X44D01*
X49Y8885D02*
Y2722D01*
X2884D01*
Y8825D01*
X2878Y8846D01*
X2868Y8861D01*
X2855Y8873D01*
X2839Y8881D01*
X2823Y8885D01*
X49D01*
G54D11*
X59Y8875D02*
Y2732D01*
X2874D01*
X2875Y8822D01*
X2869Y8841D01*
X2861Y8854D01*
X2850Y8864D01*
X2836Y8872D01*
X2823Y8875D01*
X59D01*
G54D12*
X79Y8855D02*
Y2752D01*
X2854D01*
X2856Y8816D01*
X2852Y8830D01*
X2848Y8839D01*
X2841Y8847D01*
X2832Y8852D01*
X2823Y8855D01*
X79D01*
X1468Y8855D02*
Y2752D01*
X1430D02*
Y8855D01*
X1392D02*
Y2752D01*
X1354D02*
Y8855D01*
X1316D02*
Y2752D01*
X1278D02*
Y8855D01*
X1240D02*
Y2752D01*
X1202D02*
Y8855D01*
X1164D02*
Y2752D01*
X1126D02*
Y8855D01*
X1088D02*
Y2752D01*
X1050D02*
Y8855D01*
X1012D02*
Y2752D01*
X974D02*
Y8855D01*
X936D02*
Y2752D01*
X898D02*
Y8855D01*
X860D02*
Y2752D01*
X822D02*
Y8855D01*
X784D02*
Y2752D01*
X746D02*
Y8855D01*
X708D02*
Y2752D01*
X670D02*
Y8855D01*
X632D02*
Y2752D01*
X594D02*
Y8855D01*
X556D02*
Y2752D01*
X518D02*
Y8855D01*
X480D02*
Y2752D01*
X442D02*
Y8855D01*
X404D02*
Y2752D01*
X366D02*
Y8855D01*
X328D02*
Y2752D01*
X290D02*
Y8855D01*
X252D02*
Y2752D01*
X214D02*
Y8855D01*
X176D02*
Y2752D01*
X138D02*
Y8855D01*
X100D02*
Y2752D01*
X1506D02*
Y8855D01*
X1544D02*
Y2752D01*
X1582D02*
Y8855D01*
X1620D02*
Y2752D01*
X1658D02*
Y8855D01*
X1696D02*
Y2752D01*
X1734D02*
Y8855D01*
X1772D02*
Y2752D01*
X1810D02*
Y8855D01*
X1848D02*
Y2752D01*
X1886D02*
Y8855D01*
X1924D02*
Y2752D01*
X1962D02*
Y8855D01*
X2000D02*
Y2752D01*
X2038D02*
Y8855D01*
X2076D02*
Y2752D01*
X2114D02*
Y8855D01*
X2152D02*
Y2752D01*
X2190D02*
Y8855D01*
X2228D02*
Y2752D01*
X2266D02*
Y8855D01*
X2304D02*
Y2752D01*
X2342D02*
Y8855D01*
X2380D02*
Y2752D01*
X2418D02*
Y8855D01*
X2456D02*
Y2752D01*
X2494D02*
Y8855D01*
X2532D02*
Y2752D01*
X2570D02*
Y8855D01*
X2608D02*
Y2752D01*
X2646D02*
Y8855D01*
X2684D02*
Y2752D01*
X2722D02*
Y8855D01*
X2760D02*
Y2752D01*
X2798D02*
Y8855D01*
X2836Y8850D02*
Y2752D01*
G54D10*
X44Y8890D02*
Y2717D01*
X2889D01*
Y8827D01*
X2882Y8849D01*
X2871Y8865D01*
X2857Y8878D01*
X2840Y8886D01*
X2823Y8890D01*
X44D01*
Y9410D02*
X3337Y9409D01*
X3361Y9401D01*
X3379Y9389D01*
X3393Y9372D01*
X3403Y9353D01*
X3407Y9333D01*
Y3129D01*
X3322D01*
Y2735D01*
X3303Y2710D01*
X3282Y2706D01*
X3056D01*
Y2602D01*
X3294D01*
X3318Y2580D01*
X3322Y2560D01*
Y2340D01*
X3301Y2316D01*
X3281Y2312D01*
X3079D01*
X3060Y2297D01*
X3056Y2281D01*
Y2227D01*
X3038Y2202D01*
X3016Y2198D01*
X44Y2197D01*
Y44D01*
X6944D01*
Y2197D01*
X3962Y2198D01*
X3937Y2217D01*
X3932Y2238D01*
Y2289D01*
X3918Y2308D01*
X3902Y2312D01*
X3694D01*
X3670Y2333D01*
X3667Y2353D01*
Y2574D01*
X3687Y2598D01*
X3708Y2602D01*
X3909D01*
X3929Y2616D01*
X3932Y2632D01*
Y2687D01*
X3951Y2712D01*
X3973Y2717D01*
X4095D01*
Y9340D01*
X4104Y9363D01*
X4116Y9382D01*
X4132Y9396D01*
X4152Y9406D01*
X4172Y9410D01*
X6944D01*
Y11763D01*
X6551D01*
Y13721D01*
X438D01*
Y11763D01*
X44D01*
Y9410D01*
X49Y9415D02*
X3339Y9414D01*
X3363Y9405D01*
X3383Y9392D01*
X3398Y9375D01*
X3408Y9354D01*
X3412Y9333D01*
Y3124D01*
X3327D01*
Y2734D01*
X3306Y2706D01*
X3282Y2701D01*
X3061D01*
Y2607D01*
X3296D01*
X3323Y2583D01*
X3327Y2560D01*
Y2338D01*
X3303Y2311D01*
X3281Y2307D01*
X3081D01*
X3065Y2294D01*
X3061Y2281D01*
Y2226D01*
X3040Y2198D01*
X3016Y2193D01*
X49Y2192D01*
Y49D01*
X6939D01*
Y2192D01*
X3960Y2193D01*
X3932Y2214D01*
X3927Y2238D01*
Y2287D01*
X3915Y2304D01*
X3902Y2307D01*
X3693D01*
X3666Y2330D01*
X3662Y2353D01*
Y2575D01*
X3685Y2602D01*
X3708Y2607D01*
X3908D01*
X3924Y2619D01*
X3927Y2632D01*
Y2688D01*
X3948Y2716D01*
X3973Y2722D01*
X4090D01*
X4091Y9342D01*
X4099Y9366D01*
X4113Y9386D01*
X4130Y9401D01*
X4151Y9411D01*
X4172Y9415D01*
X6939D01*
Y11758D01*
X6546D01*
Y13716D01*
X443D01*
Y11758D01*
X49D01*
Y9415D01*
G54D11*
X59Y9425D02*
X3342Y9424D01*
X3369Y9414D01*
X3390Y9399D01*
X3407Y9379D01*
X3418Y9355D01*
X3422Y9333D01*
Y3114D01*
X3337D01*
Y2730D01*
X3312Y2697D01*
X3282Y2691D01*
X3071D01*
Y2617D01*
X3300D01*
X3332Y2588D01*
X3337Y2560D01*
Y2334D01*
X3309Y2302D01*
X3281Y2297D01*
X3084D01*
X3073Y2289D01*
X3071Y2281D01*
Y2222D01*
X3046Y2189D01*
X3016Y2183D01*
X59Y2182D01*
Y59D01*
X6929D01*
Y2182D01*
X3957Y2183D01*
X3923Y2208D01*
X3917Y2238D01*
Y2284D01*
X3909Y2295D01*
X3902Y2297D01*
X3689D01*
X3657Y2325D01*
X3652Y2353D01*
Y2579D01*
X3679Y2611D01*
X3708Y2617D01*
X3904D01*
X3915Y2625D01*
X3917Y2632D01*
Y2691D01*
X3942Y2725D01*
X3973Y2732D01*
X4080D01*
X4081Y9345D01*
X4091Y9372D01*
X4106Y9393D01*
X4126Y9410D01*
X4150Y9421D01*
X4172Y9425D01*
X6929D01*
Y11748D01*
X6536D01*
Y13706D01*
X453D01*
Y11748D01*
X59D01*
Y9425D01*
X4081Y6883D02*
X3422D01*
Y6902D02*
X4081D01*
Y6921D02*
X3422D01*
Y6940D02*
X4081D01*
Y6959D02*
X3422D01*
Y6978D02*
X4081D01*
Y6997D02*
X3422D01*
Y7016D02*
X4081D01*
Y7035D02*
X3422D01*
Y7054D02*
X4081D01*
Y7073D02*
X3422D01*
Y7092D02*
X4081D01*
Y7111D02*
X3422D01*
Y7130D02*
X4081D01*
Y7149D02*
X3422D01*
Y7168D02*
X4081D01*
Y7187D02*
X3422D01*
Y7206D02*
X4081D01*
Y7225D02*
X3422D01*
Y7244D02*
X4081D01*
Y7263D02*
X3422D01*
Y7282D02*
X4081D01*
Y7301D02*
X3422D01*
Y7320D02*
X4081D01*
Y7339D02*
X3422D01*
Y7358D02*
X4081D01*
Y7377D02*
X3422D01*
Y7396D02*
X4081D01*
Y7415D02*
X3422D01*
Y7434D02*
X4081D01*
Y7453D02*
X3422D01*
Y7472D02*
X4081D01*
Y7491D02*
X3422D01*
Y7510D02*
X4081D01*
Y7529D02*
X3422D01*
Y7548D02*
X4081D01*
Y7567D02*
X3422D01*
Y7586D02*
X4081D01*
Y7605D02*
X3422D01*
Y7624D02*
X4081D01*
Y7643D02*
X3422D01*
Y7662D02*
X4081D01*
Y7681D02*
X3422D01*
Y7700D02*
X4081D01*
Y7719D02*
X3422D01*
Y7738D02*
X4081D01*
Y7757D02*
X3422D01*
Y7776D02*
X4081D01*
Y7795D02*
X3422D01*
Y7814D02*
X4081D01*
Y7833D02*
X3422D01*
Y7852D02*
X4081D01*
Y7871D02*
X3422D01*
Y7890D02*
X4081D01*
Y7909D02*
X3422D01*
Y7928D02*
X4081D01*
Y7947D02*
X3422D01*
Y7966D02*
X4081D01*
Y7985D02*
X3422D01*
Y8004D02*
X4081D01*
Y8023D02*
X3422D01*
Y8042D02*
X4081D01*
Y8061D02*
X3422D01*
Y8080D02*
X4081D01*
Y8099D02*
X3422D01*
Y8118D02*
X4081D01*
Y8137D02*
X3422D01*
Y8156D02*
X4081D01*
Y8175D02*
X3422D01*
Y8194D02*
X4081D01*
Y8213D02*
X3422D01*
Y8232D02*
X4081D01*
Y8251D02*
X3422D01*
Y8270D02*
X4081D01*
Y8289D02*
X3422D01*
Y8308D02*
X4081D01*
Y8327D02*
X3422D01*
Y8346D02*
X4081D01*
Y8365D02*
X3422D01*
Y8384D02*
X4081D01*
Y8403D02*
X3422D01*
Y8422D02*
X4081D01*
Y8441D02*
X3422D01*
Y8460D02*
X4081D01*
Y8479D02*
X3422D01*
Y8498D02*
X4081D01*
Y8517D02*
X3422D01*
Y8536D02*
X4081D01*
Y8555D02*
X3422D01*
Y8574D02*
X4081D01*
Y8593D02*
X3422D01*
Y8612D02*
X4081D01*
Y8631D02*
X3422D01*
Y8650D02*
X4081D01*
Y8669D02*
X3422D01*
Y8688D02*
X4081D01*
Y8707D02*
X3422D01*
Y8726D02*
X4081D01*
Y8745D02*
X3422D01*
Y8764D02*
X4081D01*
Y8783D02*
X3422D01*
Y8802D02*
X4081D01*
Y8821D02*
X3422D01*
Y8840D02*
X4081D01*
Y8859D02*
X3422D01*
Y8878D02*
X4081D01*
Y8897D02*
X3422D01*
Y8916D02*
X4081D01*
Y8935D02*
X3422D01*
Y8954D02*
X4081D01*
Y8973D02*
X3422D01*
Y8992D02*
X4081D01*
Y9011D02*
X3422D01*
Y9030D02*
X4081D01*
X4081Y9049D02*
X3422D01*
Y9068D02*
X4081D01*
Y9087D02*
X3422D01*
Y9106D02*
X4081D01*
Y9125D02*
X3422D01*
Y9144D02*
X4081D01*
Y9163D02*
X3422D01*
Y9182D02*
X4081D01*
Y9201D02*
X3422D01*
Y9220D02*
X4081D01*
Y9239D02*
X3422D01*
Y9258D02*
X4081D01*
Y9277D02*
X3422D01*
Y9296D02*
X4081D01*
Y9315D02*
X3422D01*
X3422Y9334D02*
X4081D01*
X4084Y9353D02*
X3418D01*
X3410Y9372D02*
X4091D01*
X4104Y9391D02*
X3397D01*
X3375Y9410D02*
X4126D01*
X6929Y9429D02*
X59D01*
Y9448D02*
X6929D01*
Y9467D02*
X59D01*
Y9486D02*
X6929D01*
Y9505D02*
X59D01*
Y9524D02*
X6929D01*
Y9543D02*
X59D01*
Y9562D02*
X6929D01*
Y9581D02*
X59D01*
Y9600D02*
X6929D01*
Y9619D02*
X59D01*
Y9638D02*
X6929D01*
Y9657D02*
X59D01*
Y9676D02*
X6929D01*
Y9695D02*
X59D01*
Y9714D02*
X6929D01*
Y9733D02*
X59D01*
Y9752D02*
X6929D01*
Y9771D02*
X59D01*
Y9790D02*
X6929D01*
Y9809D02*
X59D01*
Y9828D02*
X6929D01*
Y9847D02*
X59D01*
Y9866D02*
X6929D01*
Y9885D02*
X59D01*
Y9904D02*
X6929D01*
Y9923D02*
X59D01*
Y9942D02*
X6929D01*
Y9961D02*
X59D01*
Y9980D02*
X6929D01*
Y9999D02*
X59D01*
Y10018D02*
X6929D01*
Y10037D02*
X59D01*
Y10056D02*
X6929D01*
Y10075D02*
X59D01*
Y10094D02*
X6929D01*
Y10113D02*
X59D01*
Y10132D02*
X6929D01*
Y10151D02*
X59D01*
Y10170D02*
X6929D01*
Y10189D02*
X59D01*
Y10208D02*
X6929D01*
Y10227D02*
X59D01*
Y10246D02*
X6929D01*
Y10265D02*
X59D01*
Y10284D02*
X6929D01*
Y10303D02*
X59D01*
Y10322D02*
X6929D01*
Y10341D02*
X59D01*
Y10360D02*
X6929D01*
Y10379D02*
X59D01*
Y10398D02*
X6929D01*
Y10417D02*
X59D01*
Y10436D02*
X6929D01*
Y10455D02*
X59D01*
Y10474D02*
X6929D01*
Y10493D02*
X59D01*
Y10512D02*
X6929D01*
Y10531D02*
X59D01*
Y10550D02*
X6929D01*
Y10569D02*
X59D01*
Y10588D02*
X6929D01*
Y10607D02*
X59D01*
Y10626D02*
X6929D01*
Y10645D02*
X59D01*
Y10664D02*
X6929D01*
Y10683D02*
X59D01*
Y10702D02*
X6929D01*
Y10721D02*
X59D01*
Y10740D02*
X6929D01*
Y10759D02*
X59D01*
Y10778D02*
X6929D01*
Y10797D02*
X59D01*
Y10816D02*
X6929D01*
Y10835D02*
X59D01*
Y10854D02*
X6929D01*
Y10873D02*
X59D01*
Y10892D02*
X6929D01*
Y10911D02*
X59D01*
Y10930D02*
X6929D01*
Y10949D02*
X59D01*
Y10968D02*
X6929D01*
Y10987D02*
X59D01*
Y11006D02*
X6929D01*
Y11025D02*
X59D01*
Y11044D02*
X6929D01*
Y11063D02*
X59D01*
Y11082D02*
X6929D01*
Y11101D02*
X59D01*
Y11120D02*
X6929D01*
Y11139D02*
X59D01*
Y11158D02*
X6929D01*
Y11177D02*
X59D01*
Y11196D02*
X6929D01*
Y11215D02*
X59D01*
Y11234D02*
X6929D01*
Y11253D02*
X59D01*
Y11272D02*
X6929D01*
Y11291D02*
X59D01*
Y11310D02*
X6929D01*
Y11329D02*
X59D01*
Y11348D02*
X6929D01*
Y11367D02*
X59D01*
Y11386D02*
X6929D01*
Y11405D02*
X59D01*
Y11424D02*
X6929D01*
Y11443D02*
X59D01*
Y11462D02*
X6929D01*
Y11481D02*
X59D01*
Y11500D02*
X6929D01*
Y11519D02*
X59D01*
Y11538D02*
X6929D01*
Y11557D02*
X59D01*
Y11576D02*
X6929D01*
Y11595D02*
X59D01*
Y11614D02*
X6929D01*
Y11633D02*
X59D01*
Y11652D02*
X6929D01*
Y11671D02*
X59D01*
Y11690D02*
X6929D01*
Y11709D02*
X59D01*
Y11728D02*
X6929D01*
Y11747D02*
X59D01*
X453Y11766D02*
X6536D01*
Y11785D02*
X453D01*
Y11804D02*
X6536D01*
Y11823D02*
X453D01*
Y11842D02*
X6536D01*
Y11861D02*
X453D01*
Y11880D02*
X6536D01*
Y11899D02*
X453D01*
Y11918D02*
X6536D01*
Y11937D02*
X453D01*
Y11956D02*
X6536D01*
Y11975D02*
X453D01*
Y11994D02*
X6536D01*
Y12013D02*
X453D01*
Y12032D02*
X6536D01*
Y12051D02*
X453D01*
Y12070D02*
X6536D01*
Y12089D02*
X453D01*
Y12108D02*
X6536D01*
Y12127D02*
X453D01*
Y12146D02*
X6536D01*
Y12165D02*
X453D01*
Y12184D02*
X6536D01*
Y12203D02*
X453D01*
Y12222D02*
X6536D01*
Y12241D02*
X453D01*
Y12260D02*
X6536D01*
Y12279D02*
X453D01*
Y12298D02*
X6536D01*
Y12317D02*
X453D01*
Y12336D02*
X6536D01*
Y12355D02*
X453D01*
Y12374D02*
X6536D01*
Y12393D02*
X453D01*
Y12412D02*
X6536D01*
Y12431D02*
X453D01*
Y12450D02*
X6536D01*
Y12469D02*
X453D01*
Y12488D02*
X6536D01*
Y12507D02*
X453D01*
Y12526D02*
X6536D01*
Y12545D02*
X453D01*
Y12564D02*
X6536D01*
Y12583D02*
X453D01*
Y12602D02*
X6536D01*
Y12621D02*
X453D01*
Y12640D02*
X6536D01*
Y12659D02*
X453D01*
Y12678D02*
X6536D01*
Y12697D02*
X453D01*
Y12716D02*
X6536D01*
Y12735D02*
X453D01*
Y12754D02*
X6536D01*
Y12773D02*
X453D01*
Y12792D02*
X6536D01*
Y12811D02*
X453D01*
Y12830D02*
X6536D01*
Y12849D02*
X453D01*
Y12868D02*
X6536D01*
Y12887D02*
X453D01*
Y12906D02*
X6536D01*
Y12925D02*
X453D01*
Y12944D02*
X6536D01*
Y12963D02*
X453D01*
Y12982D02*
X6536D01*
Y13001D02*
X453D01*
Y13020D02*
X6536D01*
Y13039D02*
X453D01*
Y13058D02*
X6536D01*
Y13077D02*
X453D01*
Y13096D02*
X6536D01*
Y13115D02*
X453D01*
Y13134D02*
X6536D01*
Y13153D02*
X453D01*
Y13172D02*
X6536D01*
Y13191D02*
X453D01*
Y13210D02*
X6536D01*
Y13229D02*
X453D01*
Y13248D02*
X6536D01*
Y13267D02*
X453D01*
Y13286D02*
X6536D01*
Y13305D02*
X453D01*
Y13324D02*
X6536D01*
Y13343D02*
X453D01*
Y13362D02*
X6536D01*
Y13381D02*
X453D01*
Y13400D02*
X6536D01*
Y13419D02*
X453D01*
Y13438D02*
X6536D01*
Y13457D02*
X453D01*
Y13476D02*
X6536D01*
Y13495D02*
X453D01*
Y13514D02*
X6536D01*
Y13533D02*
X453D01*
Y13552D02*
X6536D01*
Y13571D02*
X453D01*
Y13590D02*
X6536D01*
Y13609D02*
X453D01*
Y13628D02*
X6536D01*
Y13647D02*
X453D01*
Y13666D02*
X6536D01*
Y13685D02*
X453D01*
Y13704D02*
X6536D01*
X4081Y6864D02*
X3422D01*
Y6845D02*
X4081D01*
Y6826D02*
X3422D01*
Y6807D02*
X4081D01*
Y6788D02*
X3422D01*
Y6769D02*
X4081D01*
Y6750D02*
X3422D01*
Y6731D02*
X4081D01*
Y6712D02*
X3422D01*
Y6693D02*
X4081D01*
Y6674D02*
X3422D01*
Y6655D02*
X4081D01*
X4081Y6636D02*
X3422D01*
Y6617D02*
X4081D01*
Y6598D02*
X3422D01*
Y6579D02*
X4081D01*
Y6560D02*
X3422D01*
Y6541D02*
X4081D01*
Y6522D02*
X3422D01*
Y6503D02*
X4081D01*
Y6484D02*
X3422D01*
Y6465D02*
X4081D01*
Y6446D02*
X3422D01*
Y6427D02*
X4081D01*
Y6408D02*
X3422D01*
Y6389D02*
X4081D01*
Y6370D02*
X3422D01*
Y6351D02*
X4081D01*
Y6332D02*
X3422D01*
Y6313D02*
X4081D01*
Y6294D02*
X3422D01*
Y6275D02*
X4081D01*
Y6256D02*
X3422D01*
Y6237D02*
X4081D01*
Y6218D02*
X3422D01*
Y6199D02*
X4081D01*
Y6180D02*
X3422D01*
Y6161D02*
X4081D01*
Y6142D02*
X3422D01*
Y6123D02*
X4081D01*
Y6104D02*
X3422D01*
Y6085D02*
X4081D01*
Y6066D02*
X3422D01*
Y6047D02*
X4081D01*
X4081Y6028D02*
X3422D01*
Y6009D02*
X4081D01*
Y5990D02*
X3422D01*
Y5971D02*
X4081D01*
Y5952D02*
X3422D01*
Y5933D02*
X4081D01*
Y5914D02*
X3422D01*
Y5895D02*
X4081D01*
Y5876D02*
X3422D01*
Y5857D02*
X4081D01*
Y5838D02*
X3422D01*
Y5819D02*
X4081D01*
Y5800D02*
X3422D01*
Y5781D02*
X4081D01*
Y5762D02*
X3422D01*
Y5743D02*
X4081D01*
Y5724D02*
X3422D01*
Y5705D02*
X4081D01*
Y5686D02*
X3422D01*
Y5667D02*
X4081D01*
Y5648D02*
X3422D01*
Y5629D02*
X4081D01*
Y5610D02*
X3422D01*
Y5591D02*
X4081D01*
Y5572D02*
X3422D01*
Y5553D02*
X4081D01*
Y5534D02*
X3422D01*
Y5515D02*
X4081D01*
Y5496D02*
X3422D01*
Y5477D02*
X4081D01*
Y5458D02*
X3422D01*
Y5439D02*
X4081D01*
X4081Y5420D02*
X3422D01*
Y5401D02*
X4081D01*
Y5382D02*
X3422D01*
Y5363D02*
X4081D01*
Y5344D02*
X3422D01*
Y5325D02*
X4081D01*
Y5306D02*
X3422D01*
Y5287D02*
X4081D01*
Y5268D02*
X3422D01*
Y5249D02*
X4081D01*
Y5230D02*
X3422D01*
Y5211D02*
X4081D01*
Y5192D02*
X3422D01*
Y5173D02*
X4081D01*
Y5154D02*
X3422D01*
Y5135D02*
X4081D01*
Y5116D02*
X3422D01*
Y5097D02*
X4081D01*
Y5078D02*
X3422D01*
Y5059D02*
X4081D01*
Y5040D02*
X3422D01*
Y5021D02*
X4081D01*
Y5002D02*
X3422D01*
Y4983D02*
X4081D01*
Y4964D02*
X3422D01*
Y4945D02*
X4081D01*
Y4926D02*
X3422D01*
Y4907D02*
X4081D01*
Y4888D02*
X3422D01*
Y4869D02*
X4081D01*
Y4850D02*
X3422D01*
Y4831D02*
X4081D01*
Y4812D02*
X3422D01*
Y4793D02*
X4081D01*
Y4774D02*
X3422D01*
Y4755D02*
X4081D01*
Y4736D02*
X3422D01*
Y4717D02*
X4081D01*
Y4698D02*
X3422D01*
Y4679D02*
X4081D01*
Y4660D02*
X3422D01*
Y4641D02*
X4081D01*
Y4622D02*
X3422D01*
Y4603D02*
X4081D01*
Y4584D02*
X3422D01*
Y4565D02*
X4081D01*
Y4546D02*
X3422D01*
Y4527D02*
X4081D01*
Y4508D02*
X3422D01*
Y4489D02*
X4081D01*
Y4470D02*
X3422D01*
Y4451D02*
X4081D01*
Y4432D02*
X3422D01*
Y4413D02*
X4081D01*
Y4394D02*
X3422D01*
Y4375D02*
X4081D01*
Y4356D02*
X3422D01*
Y4337D02*
X4081D01*
Y4318D02*
X3422D01*
Y4299D02*
X4081D01*
Y4280D02*
X3422D01*
Y4261D02*
X4081D01*
Y4242D02*
X3422D01*
Y4223D02*
X4080D01*
Y4204D02*
X3422D01*
Y4185D02*
X4080D01*
Y4166D02*
X3422D01*
Y4147D02*
X4080D01*
Y4128D02*
X3422D01*
Y4109D02*
X4080D01*
Y4090D02*
X3422D01*
Y4071D02*
X4080D01*
Y4052D02*
X3422D01*
Y4033D02*
X4080D01*
Y4014D02*
X3422D01*
Y3995D02*
X4080D01*
Y3976D02*
X3422D01*
Y3957D02*
X4080D01*
Y3938D02*
X3422D01*
Y3919D02*
X4080D01*
Y3900D02*
X3422D01*
Y3881D02*
X4080D01*
Y3862D02*
X3422D01*
Y3843D02*
X4080D01*
Y3824D02*
X3422D01*
Y3805D02*
X4080D01*
Y3786D02*
X3422D01*
Y3767D02*
X4080D01*
Y3748D02*
X3422D01*
Y3729D02*
X4080D01*
Y3710D02*
X3422D01*
Y3691D02*
X4080D01*
Y3672D02*
X3422D01*
Y3653D02*
X4080D01*
Y3634D02*
X3422D01*
Y3615D02*
X4080D01*
Y3595D02*
X3422D01*
Y3576D02*
X4080D01*
Y3557D02*
X3422D01*
Y3538D02*
X4080D01*
Y3519D02*
X3422D01*
Y3500D02*
X4080D01*
Y3481D02*
X3422D01*
Y3462D02*
X4080D01*
Y3443D02*
X3422D01*
Y3424D02*
X4080D01*
Y3405D02*
X3422D01*
Y3386D02*
X4080D01*
Y3367D02*
X3422D01*
Y3348D02*
X4080D01*
Y3329D02*
X3422D01*
Y3310D02*
X4080D01*
Y3291D02*
X3422D01*
Y3272D02*
X4080D01*
Y3253D02*
X3422D01*
Y3234D02*
X4080D01*
Y3215D02*
X3422D01*
Y3196D02*
X4080D01*
Y3177D02*
X3422D01*
Y3158D02*
X4080D01*
Y3139D02*
X3422D01*
Y3120D02*
X4080D01*
Y3101D02*
X3337D01*
Y3082D02*
X4080D01*
Y3063D02*
X3337D01*
Y3044D02*
X4080D01*
X4080Y3025D02*
X3337D01*
Y3006D02*
X4080D01*
Y2987D02*
X3337D01*
Y2968D02*
X4080D01*
Y2949D02*
X3337D01*
Y2930D02*
X4080D01*
Y2911D02*
X3337D01*
Y2892D02*
X4080D01*
Y2873D02*
X3337D01*
Y2854D02*
X4080D01*
Y2835D02*
X3337D01*
Y2816D02*
X4080D01*
Y2797D02*
X3337D01*
Y2778D02*
X4080D01*
Y2759D02*
X3337D01*
Y2740D02*
X4080D01*
X3939Y2721D02*
X3331D01*
X3316Y2702D02*
X3925D01*
X3917Y2683D02*
X3071D01*
Y2664D02*
X3917D01*
Y2645D02*
X3071D01*
Y2626D02*
X3916D01*
X3676Y2607D02*
X3310D01*
X3332Y2588D02*
X3660D01*
X3652Y2569D02*
X3336D01*
X3337Y2550D02*
X3652D01*
Y2531D02*
X3337D01*
Y2512D02*
X3652D01*
Y2493D02*
X3337D01*
Y2474D02*
X3652D01*
Y2455D02*
X3337D01*
Y2436D02*
X3652D01*
Y2417D02*
X3337D01*
Y2398D02*
X3652D01*
Y2379D02*
X3337D01*
Y2360D02*
X3652D01*
X3654Y2341D02*
X3337D01*
X3327Y2322D02*
X3660D01*
X3681Y2303D02*
X3310D01*
X3072Y2284D02*
X3917D01*
X3917Y2265D02*
X3071D01*
Y2246D02*
X3917D01*
X3919Y2227D02*
X3071D01*
X3061Y2208D02*
X3923D01*
X3948Y2189D02*
X3047D01*
X59Y2170D02*
X6929D01*
Y2151D02*
X59D01*
Y2132D02*
X6929D01*
Y2113D02*
X59D01*
Y2094D02*
X6929D01*
Y2075D02*
X59D01*
Y2056D02*
X6929D01*
Y2037D02*
X59D01*
Y2018D02*
X6929D01*
Y1999D02*
X59D01*
Y1980D02*
X6929D01*
Y1961D02*
X59D01*
Y1942D02*
X6929D01*
Y1923D02*
X59D01*
Y1904D02*
X6929D01*
Y1885D02*
X59D01*
Y1866D02*
X6929D01*
Y1847D02*
X59D01*
Y1828D02*
X6929D01*
Y1809D02*
X59D01*
Y1790D02*
X6929D01*
Y1771D02*
X59D01*
Y1752D02*
X6929D01*
Y1733D02*
X59D01*
Y1714D02*
X6929D01*
Y1695D02*
X59D01*
Y1676D02*
X6929D01*
Y1657D02*
X59D01*
Y1638D02*
X6929D01*
Y1619D02*
X59D01*
Y1600D02*
X6929D01*
Y1581D02*
X59D01*
Y1562D02*
X6929D01*
Y1543D02*
X59D01*
Y1524D02*
X6929D01*
Y1505D02*
X59D01*
Y1486D02*
X6929D01*
Y1467D02*
X59D01*
Y1448D02*
X6929D01*
Y1429D02*
X59D01*
Y1410D02*
X6929D01*
Y1391D02*
X59D01*
Y1372D02*
X6929D01*
Y1353D02*
X59D01*
Y1334D02*
X6929D01*
Y1315D02*
X59D01*
Y1296D02*
X6929D01*
Y1277D02*
X59D01*
Y1258D02*
X6929D01*
Y1239D02*
X59D01*
Y1220D02*
X6929D01*
Y1201D02*
X59D01*
Y1182D02*
X6929D01*
Y1163D02*
X59D01*
Y1144D02*
X6929D01*
Y1125D02*
X59D01*
Y1106D02*
X6929D01*
Y1087D02*
X59D01*
Y1068D02*
X6929D01*
Y1049D02*
X59D01*
Y1030D02*
X6929D01*
Y1011D02*
X59D01*
Y992D02*
X6929D01*
Y973D02*
X59D01*
Y954D02*
X6929D01*
Y935D02*
X59D01*
Y916D02*
X6929D01*
Y897D02*
X59D01*
Y878D02*
X6929D01*
Y859D02*
X59D01*
Y840D02*
X6929D01*
Y821D02*
X59D01*
Y802D02*
X6929D01*
Y783D02*
X59D01*
Y764D02*
X6929D01*
Y745D02*
X59D01*
Y726D02*
X6929D01*
Y707D02*
X59D01*
Y688D02*
X6929D01*
Y669D02*
X59D01*
Y650D02*
X6929D01*
Y631D02*
X59D01*
Y612D02*
X6929D01*
Y593D02*
X59D01*
Y574D02*
X6929D01*
Y555D02*
X59D01*
Y536D02*
X6929D01*
Y517D02*
X59D01*
Y498D02*
X6929D01*
Y479D02*
X59D01*
Y460D02*
X6929D01*
Y441D02*
X59D01*
Y422D02*
X6929D01*
Y403D02*
X59D01*
Y384D02*
X6929D01*
Y365D02*
X59D01*
Y346D02*
X6929D01*
Y327D02*
X59D01*
Y308D02*
X6929D01*
Y289D02*
X59D01*
Y270D02*
X6929D01*
Y251D02*
X59D01*
Y232D02*
X6929D01*
Y213D02*
X59D01*
Y194D02*
X6929D01*
Y175D02*
X59D01*
Y156D02*
X6929D01*
Y137D02*
X59D01*
Y118D02*
X6929D01*
Y99D02*
X59D01*
Y80D02*
X6929D01*
Y61D02*
X59D01*
G54D10*
X44Y9410D02*
X3337Y9409D01*
X3361Y9401D01*
X3379Y9389D01*
X3393Y9372D01*
X3403Y9353D01*
X3407Y9333D01*
Y3129D01*
X3322D01*
Y2735D01*
X3303Y2710D01*
X3282Y2706D01*
X3056D01*
Y2602D01*
X3294D01*
X3318Y2580D01*
X3322Y2560D01*
Y2340D01*
X3301Y2316D01*
X3281Y2312D01*
X3079D01*
X3060Y2297D01*
X3056Y2281D01*
Y2227D01*
X3038Y2202D01*
X3016Y2198D01*
X44Y2197D01*
Y44D01*
X6944D01*
Y2197D01*
X3962Y2198D01*
X3937Y2217D01*
X3932Y2238D01*
Y2289D01*
X3918Y2308D01*
X3902Y2312D01*
X3694D01*
X3670Y2333D01*
X3667Y2353D01*
Y2574D01*
X3687Y2598D01*
X3708Y2602D01*
X3909D01*
X3929Y2616D01*
X3932Y2632D01*
Y2687D01*
X3951Y2712D01*
X3973Y2717D01*
X4095D01*
Y9340D01*
X4104Y9363D01*
X4116Y9382D01*
X4132Y9396D01*
X4152Y9406D01*
X4172Y9410D01*
X6944D01*
Y11763D01*
X6551D01*
Y13721D01*
X438D01*
Y11763D01*
X44D01*
Y9410D01*
X2474Y2357D02*
X2845Y2358D01*
X2890Y2363D01*
X2933Y2373D01*
X3034Y2403D01*
X3239D01*
Y2511D01*
X3032D01*
X2912Y2546D01*
X2868Y2553D01*
X2823Y2556D01*
X2474D01*
Y2357D01*
X2479Y2362D02*
X2845Y2363D01*
X2889Y2368D01*
X2932Y2378D01*
X3034Y2408D01*
X3234D01*
Y2506D01*
X3031D01*
X2911Y2541D01*
X2868Y2548D01*
X2823Y2551D01*
X2479D01*
Y2362D01*
G54D11*
X2489Y2372D02*
X2844Y2373D01*
X2886Y2378D01*
X2929Y2388D01*
X3034Y2418D01*
X3224D01*
Y2496D01*
X3028D01*
X2910Y2531D01*
X2867Y2538D01*
X2823Y2541D01*
X2489D01*
Y2372D01*
G54D12*
X2509Y2392D02*
X2841Y2393D01*
X2882Y2397D01*
X2924Y2407D01*
X3034Y2438D01*
X3204D01*
Y2476D01*
X3023Y2477D01*
X2906Y2511D01*
X2866Y2518D01*
X2823Y2521D01*
X2509D01*
Y2392D01*
X3023Y2476D02*
X3033Y2439D01*
X3204Y2457D02*
X3028D01*
X3204Y2457D02*
X2509D01*
Y2495D02*
X2963D01*
X2966Y2419D02*
X2509D01*
G54D10*
X2474Y2357D02*
X2845Y2358D01*
X2890Y2363D01*
X2933Y2373D01*
X3034Y2403D01*
X3239D01*
Y2511D01*
X3032D01*
X2912Y2546D01*
X2868Y2553D01*
X2823Y2556D01*
X2474D01*
Y2357D01*
X4622Y8823D02*
Y3335D01*
X4756Y3334D01*
X4772Y3331D01*
X4787Y3326D01*
X4802Y3319D01*
X4815Y3310D01*
X4827Y3299D01*
X4838Y3287D01*
X4847Y3274D01*
X4854Y3259D01*
X4859Y3244D01*
X4862Y3228D01*
X4863Y2717D01*
X6944D01*
Y8890D01*
X4689D01*
X4670Y8886D01*
X4652Y8876D01*
X4636Y8861D01*
X4626Y8842D01*
X4622Y8823D01*
X4627D02*
Y3340D01*
X4757Y3339D01*
X4774Y3336D01*
X4789Y3330D01*
X4804Y3323D01*
X4818Y3314D01*
X4831Y3302D01*
X4842Y3290D01*
X4851Y3276D01*
X4858Y3261D01*
X4864Y3245D01*
X4867Y3228D01*
X4868Y2722D01*
X6939D01*
Y8885D01*
X4690D01*
X4673Y8882D01*
X4655Y8872D01*
X4641Y8859D01*
X4631Y8841D01*
X4627Y8823D01*
G54D11*
X4637D02*
Y3350D01*
X4759Y3349D01*
X4777Y3345D01*
X4794Y3339D01*
X4810Y3331D01*
X4825Y3321D01*
X4838Y3309D01*
X4850Y3295D01*
X4860Y3280D01*
X4868Y3264D01*
X4874Y3247D01*
X4877Y3228D01*
X4878Y2732D01*
X6929D01*
Y8875D01*
X4692D01*
X4677Y8873D01*
X4662Y8865D01*
X4649Y8854D01*
X4641Y8839D01*
X4637Y8823D01*
G54D12*
X4657D02*
Y3370D01*
X4763Y3369D01*
X4783Y3364D01*
X4803Y3357D01*
X4821Y3348D01*
X4838Y3336D01*
X4854Y3322D01*
X4867Y3306D01*
X4878Y3289D01*
X4887Y3270D01*
X4893Y3250D01*
X4897Y3228D01*
X4898Y2752D01*
X6909D01*
Y8855D01*
X4695D01*
X4686D01*
X4675Y8850D01*
X4667Y8844D01*
X4660Y8834D01*
X4657Y8823D01*
X5783Y8855D02*
Y2752D01*
X5745D02*
Y8855D01*
X5707D02*
Y2752D01*
X5669D02*
Y8855D01*
X5631D02*
Y2752D01*
X5593D02*
Y8855D01*
X5555D02*
Y2752D01*
X5517D02*
Y8855D01*
X5479D02*
Y2752D01*
X5441D02*
Y8855D01*
X5403D02*
Y2752D01*
X5365D02*
Y8855D01*
X5327D02*
Y2752D01*
X5289D02*
Y8855D01*
X5251D02*
Y2752D01*
X5213D02*
Y8855D01*
X5175D02*
Y2752D01*
X5137D02*
Y8855D01*
X5099Y8855D02*
Y2752D01*
X5061D02*
Y8855D01*
X5023D02*
Y2752D01*
X4985D02*
Y8855D01*
X4947D02*
Y2752D01*
X4909D02*
Y8855D01*
X4871D02*
Y3300D01*
X4833Y3340D02*
Y8855D01*
X4795D02*
Y3360D01*
X4757Y3369D02*
Y8856D01*
X4719D02*
Y3369D01*
X4681Y3370D02*
Y8853D01*
X5821Y8855D02*
Y2752D01*
X5859D02*
Y8855D01*
X5897D02*
Y2752D01*
X5935D02*
Y8855D01*
X5973D02*
Y2752D01*
X6011D02*
Y8855D01*
X6049D02*
Y2752D01*
X6087D02*
Y8855D01*
X6125Y8855D02*
Y2752D01*
X6163D02*
Y8855D01*
X6201D02*
Y2752D01*
X6239D02*
Y8855D01*
X6277D02*
Y2752D01*
X6315D02*
Y8855D01*
X6353D02*
Y2752D01*
X6391D02*
Y8855D01*
X6429D02*
Y2752D01*
X6467D02*
Y8855D01*
X6505D02*
Y2752D01*
X6543D02*
Y8855D01*
X6581D02*
Y2752D01*
X6619D02*
Y8855D01*
X6657D02*
Y2752D01*
X6695D02*
Y8855D01*
X6733D02*
Y2752D01*
X6771D02*
Y8855D01*
X6809D02*
Y2752D01*
X6847D02*
Y8855D01*
X6885D02*
Y2752D01*
G54D10*
X4622Y8823D02*
Y3335D01*
X4756Y3334D01*
X4772Y3331D01*
X4787Y3326D01*
X4802Y3319D01*
X4815Y3310D01*
X4827Y3299D01*
X4838Y3287D01*
X4847Y3274D01*
X4854Y3259D01*
X4859Y3244D01*
X4862Y3228D01*
X4863Y2717D01*
X6944D01*
Y8890D01*
X4689D01*
X4670Y8886D01*
X4652Y8876D01*
X4636Y8861D01*
X4626Y8842D01*
X4622Y8823D01*
X44Y9249D02*
Y9050D01*
X2987D01*
X3011Y9042D01*
X3029Y9029D01*
X3043Y9013D01*
X3053Y8993D01*
X3056Y8973D01*
Y2798D01*
X3239D01*
X3240Y9186D01*
X3232Y9208D01*
X3222Y9224D01*
X3207Y9237D01*
X3190Y9245D01*
X3172Y9249D01*
X44D01*
X49Y9244D02*
Y9055D01*
X2988D01*
X3013Y9046D01*
X3033Y9033D01*
X3048Y9015D01*
X3058Y8994D01*
X3061Y8973D01*
Y2803D01*
X3234D01*
X3235Y9185D01*
X3228Y9205D01*
X3218Y9220D01*
X3205Y9232D01*
X3189Y9241D01*
X3172Y9244D01*
X49D01*
G54D11*
X59Y9234D02*
Y9065D01*
X2992Y9064D01*
X3019Y9054D01*
X3040Y9039D01*
X3057Y9019D01*
X3067Y8996D01*
X3071Y8973D01*
Y2813D01*
X3224D01*
X3225Y9181D01*
X3220Y9200D01*
X3212Y9213D01*
X3201Y9223D01*
X3187Y9231D01*
X3172Y9234D01*
X59D01*
G54D12*
X79Y9214D02*
Y9085D01*
X2995Y9084D01*
X3031Y9070D01*
X3056Y9052D01*
X3075Y9027D01*
X3087Y8999D01*
X3091Y8973D01*
Y2833D01*
X3204D01*
X3206Y9176D01*
X3203Y9189D01*
X3198Y9198D01*
X3191Y9206D01*
X3183Y9211D01*
X3172Y9214D01*
X79D01*
X1643Y9214D02*
Y9085D01*
X1605D02*
Y9214D01*
X1567D02*
Y9085D01*
X1529D02*
Y9214D01*
X1491D02*
Y9085D01*
X1453D02*
Y9214D01*
X1415D02*
Y9085D01*
X1377D02*
Y9214D01*
X1339D02*
Y9085D01*
X1301D02*
Y9214D01*
X1263D02*
Y9085D01*
X1225Y9085D02*
Y9214D01*
X1187D02*
Y9085D01*
X1149D02*
Y9214D01*
X1111D02*
Y9085D01*
X1073D02*
Y9214D01*
X1035D02*
Y9085D01*
X997D02*
Y9214D01*
X959D02*
Y9085D01*
X921D02*
Y9214D01*
X883D02*
Y9085D01*
X845D02*
Y9214D01*
X807D02*
Y9085D01*
X769D02*
Y9214D01*
X731D02*
Y9085D01*
X693Y9085D02*
Y9214D01*
X655D02*
Y9085D01*
X617D02*
Y9214D01*
X579D02*
Y9085D01*
X541D02*
Y9214D01*
X503D02*
Y9085D01*
X465D02*
Y9214D01*
X427D02*
Y9085D01*
X389D02*
Y9214D01*
X351D02*
Y9085D01*
X313D02*
Y9214D01*
X275D02*
Y9085D01*
X237D02*
Y9214D01*
X199D02*
Y9085D01*
X161Y9085D02*
Y9214D01*
X123D02*
Y9085D01*
X85D02*
Y9214D01*
X1681D02*
Y9085D01*
X1719D02*
Y9214D01*
X1757D02*
Y9085D01*
X1795Y9085D02*
Y9214D01*
X1833D02*
Y9085D01*
X1871D02*
Y9214D01*
X1909D02*
Y9085D01*
X1947D02*
Y9214D01*
X1985D02*
Y9085D01*
X2023D02*
Y9214D01*
X2061D02*
Y9085D01*
X2099D02*
Y9214D01*
X2137D02*
Y9085D01*
X2175D02*
Y9214D01*
X2213D02*
Y9085D01*
X2251D02*
Y9214D01*
X2289D02*
Y9085D01*
X2327Y9085D02*
Y9214D01*
X2365D02*
Y9085D01*
X2403D02*
Y9214D01*
X2441D02*
Y9085D01*
X2479D02*
Y9214D01*
X2517D02*
Y9085D01*
X2555D02*
Y9214D01*
X2593D02*
Y9084D01*
X2631D02*
Y9214D01*
X2669D02*
Y9084D01*
X2707D02*
Y9214D01*
X2745D02*
Y9084D01*
X2783D02*
Y9214D01*
X2821D02*
Y9084D01*
X2859Y9084D02*
Y9214D01*
X2897D02*
Y9084D01*
X2935D02*
Y9214D01*
X2973D02*
Y9084D01*
X3011Y9078D02*
Y9214D01*
X3049D02*
Y9057D01*
X3087Y9000D02*
Y9214D01*
X3125D02*
Y2833D01*
X3163D02*
Y9214D01*
X3201Y9193D02*
Y2833D01*
G54D10*
X44Y9249D02*
Y9050D01*
X2987D01*
X3011Y9042D01*
X3029Y9029D01*
X3043Y9013D01*
X3053Y8993D01*
X3056Y8973D01*
Y2798D01*
X3239D01*
X3240Y9186D01*
X3232Y9208D01*
X3222Y9224D01*
X3207Y9237D01*
X3190Y9245D01*
X3172Y9249D01*
X44D01*
M02*

