M48
INCH,TZ
FMAT,2
%
M72
G05
T01C.0120
X3416Y2654
X3573Y2841
X3573Y2654
X3573Y2466
X3416Y2841
X3416Y2466
X3573Y2309
X3416Y2309
X3573Y2998
X3573Y2151
X3416Y2151
X3416Y2998
X236Y2849
X630Y2849
X1024Y2849
X1417Y2849
X6790Y2064
X5609Y2064
X6003Y2064
X6397Y2064
X4428Y2064
X4822Y2064
X5215Y2064
X4034Y2064
X1811Y2849
X2205Y2849
X236Y2064
X630Y2064
X1024Y2064
X1417Y2064
X1811Y2064
X2205Y2064
X2598Y2064
X4978Y2849
X6752Y9602
X5571Y9602
X5965Y9602
X6359Y9602
X4784Y9602
X5178Y9602
X6752Y8698
X5571Y8698
X5965Y8698
X6359Y8698
X4800Y8698
X5178Y8698
X4390Y9602
X6752Y6730
X6752Y6336
X6752Y5942
X6752Y5548
X6752Y5155
X6752Y4761
X236Y6730
X236Y6336
X236Y5942
X236Y5548
X236Y5155
X236Y4761
X3751Y4022
X3751Y3629
X3751Y3235
X5845Y2849
X5373Y2849
X4852Y4211
X4852Y3817
X4852Y3424
X5894Y11565
X1170Y11565
X2745Y11565
X6713Y2849
X6241Y2849
X668Y14432
X668Y13529
X1061Y13529
X1455Y13529
X1849Y13529
X4035Y13529
X4429Y13529
X4822Y13529
X5216Y13529
X5610Y13529
X6003Y13529
X6397Y13529
X2243Y13529
X2636Y13529
X3030Y13529
X1061Y14432
X1455Y14432
X1849Y14432
X4035Y14432
X4429Y14432
X4822Y14432
X5216Y14432
X5610Y14432
X6003Y14432
X6397Y14432
X2243Y14432
X2636Y14432
X3030Y14432
X668Y16199
X1061Y16199
X1455Y16199
X1849Y16199
X4035Y16199
X4429Y16199
X4822Y16199
X5216Y16199
X5610Y16199
X6003Y16199
X6397Y16199
X2243Y16199
X2636Y16199
X3030Y16199
X3532Y16199
X3495Y15316
X4271Y15538
X2718Y15537
X2718Y15094
X4271Y15095
X3532Y14432
X3532Y13529
X3494Y12645
X4271Y12867
X2718Y12866
X2718Y12423
X4271Y12424
X274Y236
X668Y236
X1061Y236
X1455Y236
X4429Y236
X4822Y236
X5216Y236
X5610Y236
X6003Y236
X6397Y236
X6791Y236
X1849Y236
X2243Y236
X2636Y236
X3030Y236
X3532Y236
X4035Y236
X2655Y2882
X2992Y2064
X3495Y1120
X4271Y898
X2718Y899
X2718Y1342
X4271Y1341
X236Y11454
X3751Y4810
X3751Y4416
X3751Y5597
X3751Y5204
X3751Y6385
X3751Y5991
X3751Y7172
X3751Y6778
X3751Y7959
X3751Y7566
X3751Y8747
X3751Y8353
X3751Y9534
X3751Y9141
X6753Y11454
X1170Y6157
X1957Y5256
X5819Y6157
X4319Y11565
X4800Y4810
X4800Y4416
X4800Y5597
X4800Y5204
X4800Y6385
X4800Y5991
X4800Y7172
X4800Y6778
X4800Y7959
X4800Y7566
X4800Y8353
X236Y9602
X1417Y9602
X1024Y9602
X630Y9602
X2205Y9602
X1811Y9602
X2598Y9602
X2992Y9602
X236Y8698
X1417Y8698
X1024Y8698
X630Y8698
X1811Y8698
X2205Y8698
X2711Y8698
X2711Y6385
X2711Y7172
X2711Y6778
X2711Y7959
X2711Y7566
X2711Y8353
X5545Y5256
X2711Y5991
X2711Y5597
X2711Y5204
X2711Y4810
X2711Y4416
X2711Y4022
X2711Y3235
T02C.0200
X6759Y7815
X6320Y7815
X5880Y7815
X5440Y7815
X6759Y8258
X6319Y8258
X5880Y8258
X5440Y8258
X6759Y7372
X6320Y7372
X5880Y7372
X5440Y7372
X6759Y10486
X6320Y10486
X5880Y10486
X5440Y10486
X6759Y10043
X6319Y10043
X5880Y10043
X5440Y10043
X6759Y10929
X6320Y10929
X5880Y10929
X5440Y10929
X230Y3791
X669Y3791
X1109Y3792
X1549Y3792
X230Y3348
X669Y3349
X1109Y3349
X1549Y3349
X230Y4234
X669Y4234
X1109Y4234
X1548Y4234
X230Y1121
X669Y1121
X1109Y1121
X1549Y1121
X230Y1564
X669Y1564
X1109Y1563
X1549Y1563
X230Y678
X669Y678
X1109Y678
X1548Y678
X6759Y1122
X6320Y1122
X5880Y1122
X5440Y1122
X6759Y1565
X6319Y1565
X5880Y1565
X5440Y1565
X6759Y679
X6320Y679
X5880Y679
X5440Y679
X6759Y3793
X6320Y3793
X5880Y3793
X5440Y3793
X6759Y3350
X6319Y3350
X5880Y3350
X5440Y3350
X6759Y4236
X6320Y4236
X5880Y4236
X5440Y4236
X623Y15315
X1063Y15315
X1503Y15315
X1942Y15315
X623Y14872
X1063Y14872
X1503Y14872
X1942Y14872
X623Y15758
X1063Y15758
X1503Y15758
X1942Y15758
X623Y12644
X1063Y12644
X1503Y12644
X1942Y12644
X623Y13087
X1063Y13087
X1503Y13087
X1942Y13087
X623Y12201
X1063Y12201
X1503Y12201
X1942Y12201
X6366Y12646
X5926Y12646
X5487Y12646
X5047Y12646
X6366Y13089
X5926Y13089
X5487Y13089
X5047Y13089
X6366Y12203
X5926Y12203
X5487Y12203
X5047Y12203
X6366Y15317
X5926Y15317
X5487Y15317
X5047Y15317
X6366Y14874
X5926Y14874
X5487Y14874
X5047Y14874
X6366Y15759
X5926Y15759
X5487Y15760
X5047Y15760
X230Y10486
X669Y10486
X1109Y10486
X1548Y10486
X230Y10043
X669Y10043
X1109Y10043
X1549Y10043
X230Y10929
X669Y10929
X1109Y10929
X1548Y10929
X230Y7815
X669Y7815
X1109Y7815
X1548Y7815
X230Y8258
X669Y8258
X1109Y8258
X1549Y8258
X230Y7372
X669Y7372
X1109Y7372
X1548Y7372
M30
