G75*
%IPPOS*%
%FSLAX44Y44*%
%MOIN*%
%ADD10C,0.00100*%
%ADD11C,0.00200*%
%ADD12C,0.00400*%
%ADD13C,0.00800*%
%ADD14C,0.01500*%
%ADD15C,0.02500*%
%ADD16C,0.04000*%
%ADD17C,0.15000*%
%ADD18C,0.50000*%
%ADD19C,0.30000*%
%ADD20C,16.16080*%
%ADD21C,0.01180*%
%ADD22C,0.01970*%
%LNGB-SM1*%
%LPD*%
G54D10*
X989Y13816D02*
X1038D01*
Y14142D01*
X989D01*
Y13816D01*
X994Y13821D02*
X1033D01*
Y14137D01*
X994D01*
Y13821D01*
G54D11*
X1004Y13831D02*
X1023D01*
Y14127D01*
X1004D01*
Y13831D01*
X1014Y14127D02*
Y13831D01*
G54D10*
X989Y13816D02*
X1038D01*
Y14142D01*
X989D01*
Y13816D01*
X596Y2294D02*
X645D01*
Y2620D01*
X596D01*
Y2294D01*
X601Y2299D02*
X640D01*
Y2615D01*
X601D01*
Y2299D01*
G54D11*
X611Y2309D02*
X630D01*
Y2605D01*
X611D01*
Y2309D01*
X620Y2605D02*
Y2309D01*
G54D10*
X596Y2294D02*
X645D01*
Y2620D01*
X596D01*
Y2294D01*
X6393D02*
Y2620D01*
X6344D01*
Y2294D01*
X6393D01*
X6388Y2299D02*
Y2615D01*
X6349D01*
Y2299D01*
X6388D01*
G54D11*
X6378Y2309D02*
Y2605D01*
X6359D01*
Y2309D01*
X6378D01*
X6369Y2605D02*
Y2309D01*
G54D10*
X6393Y2294D02*
Y2620D01*
X6344D01*
Y2294D01*
X6393D01*
Y8987D02*
Y9313D01*
X6344D01*
Y8987D01*
X6393D01*
X6388Y8992D02*
Y9308D01*
X6349D01*
Y8992D01*
X6388D01*
G54D11*
X6378Y9002D02*
Y9298D01*
X6359D01*
Y9002D01*
X6378D01*
X6369Y9298D02*
Y9002D01*
G54D10*
X6393Y8987D02*
Y9313D01*
X6344D01*
Y8987D01*
X6393D01*
X5999Y13816D02*
Y14142D01*
X5950D01*
Y13816D01*
X5999D01*
X5994Y13821D02*
Y14137D01*
X5955D01*
Y13821D01*
X5994D01*
G54D11*
X5984Y13831D02*
Y14127D01*
X5965D01*
Y13831D01*
X5984D01*
X5975Y14127D02*
Y13831D01*
G54D10*
X5999Y13816D02*
Y14142D01*
X5950D01*
Y13816D01*
X5999D01*
X2149Y2621D02*
X2100D01*
Y2295D01*
X2149D01*
Y2621D01*
X2144Y2616D02*
X2105D01*
Y2300D01*
X2144D01*
Y2616D01*
G54D11*
X2134Y2606D02*
X2115D01*
Y2310D01*
X2134D01*
Y2606D01*
X2125Y2606D02*
Y2310D01*
G54D10*
X2149Y2621D02*
X2100D01*
Y2295D01*
X2149D01*
Y2621D01*
X2632D02*
Y2295D01*
X2681D01*
Y2621D01*
X2632D01*
X2637Y2616D02*
Y2300D01*
X2676D01*
Y2616D01*
X2637D01*
G54D11*
X2647Y2606D02*
Y2310D01*
X2666D01*
Y2606D01*
X2647D01*
X2656Y2606D02*
Y2310D01*
G54D10*
X2632Y2621D02*
Y2295D01*
X2681D01*
Y2621D01*
X2632D01*
X4964Y2620D02*
X4915D01*
Y2294D01*
X4964D01*
Y2620D01*
X4959Y2615D02*
X4920D01*
Y2299D01*
X4959D01*
Y2615D01*
G54D11*
X4949Y2605D02*
X4930D01*
Y2309D01*
X4949D01*
Y2605D01*
X4940Y2605D02*
Y2309D01*
G54D10*
X4964Y2620D02*
X4915D01*
Y2294D01*
X4964D01*
Y2620D01*
X5447D02*
Y2294D01*
X5496D01*
Y2620D01*
X5447D01*
X5452Y2615D02*
Y2299D01*
X5491D01*
Y2615D01*
X5452D01*
G54D11*
X5462Y2605D02*
Y2309D01*
X5481D01*
Y2605D01*
X5462D01*
X5471Y2605D02*
Y2309D01*
G54D10*
X5447Y2620D02*
Y2294D01*
X5496D01*
Y2620D01*
X5447D01*
X4785Y2298D02*
Y2643D01*
X4736D01*
Y2347D01*
X4392D01*
Y2643D01*
X4343D01*
Y2298D01*
X4785D01*
X4780Y2303D02*
Y2638D01*
X4741D01*
Y2342D01*
X4387D01*
Y2638D01*
X4348D01*
Y2303D01*
X4780D01*
G54D11*
X4770Y2313D02*
Y2628D01*
X4751D01*
Y2332D01*
X4377D01*
Y2628D01*
X4358D01*
Y2313D01*
X4770D01*
X4756Y2327D02*
X4765Y2318D01*
X4761Y2628D02*
Y2323D01*
X4363Y2318D02*
X4372Y2327D01*
X4367Y2628D02*
Y2323D01*
X4564Y2332D02*
Y2313D01*
X4545D02*
Y2332D01*
X4526D02*
Y2313D01*
X4507D02*
Y2332D01*
X4488D02*
Y2313D01*
X4469D02*
Y2332D01*
X4450D02*
Y2313D01*
X4431D02*
Y2332D01*
X4412D02*
Y2313D01*
X4393D02*
Y2332D01*
X4374Y2313D02*
Y2628D01*
X4583Y2332D02*
Y2313D01*
X4602D02*
Y2332D01*
X4621D02*
Y2313D01*
X4640D02*
Y2332D01*
X4659D02*
Y2313D01*
X4678D02*
Y2332D01*
X4697D02*
Y2313D01*
X4716D02*
Y2332D01*
X4735D02*
Y2313D01*
X4754D02*
Y2628D01*
G54D10*
X4785Y2298D02*
Y2643D01*
X4736D01*
Y2347D01*
X4392D01*
Y2643D01*
X4343D01*
Y2298D01*
X4785D01*
X2712Y11805D02*
Y13719D01*
X2525D01*
Y11992D01*
X438D01*
Y11805D01*
X2712D01*
X2707Y11810D02*
Y13714D01*
X2530D01*
Y11987D01*
X443D01*
Y11810D01*
X2707D01*
G54D11*
X2697Y11820D02*
Y13704D01*
X2540D01*
Y11977D01*
X453D01*
Y11820D01*
X2697D01*
G54D12*
X2677Y11840D02*
Y13684D01*
X2560D01*
Y11957D01*
X473D01*
Y11840D01*
X2677D01*
G54D13*
X2637Y11880D02*
Y13644D01*
X2600D01*
Y11917D01*
X513D01*
Y11880D01*
X2637D01*
X2637Y11880D02*
X2600Y11917D01*
X2618Y13644D02*
Y11899D01*
X1575Y11917D02*
Y11880D01*
X1499D02*
Y11917D01*
X1423D02*
Y11880D01*
X1347D02*
Y11917D01*
X1271D02*
Y11880D01*
X1195D02*
Y11917D01*
X1119D02*
Y11880D01*
X1043D02*
Y11917D01*
X967D02*
Y11880D01*
X891D02*
Y11917D01*
X815D02*
Y11880D01*
X739D02*
Y11917D01*
X663D02*
Y11880D01*
X587D02*
Y11917D01*
X1651D02*
Y11880D01*
X1727D02*
Y11917D01*
X1803D02*
Y11880D01*
X1879D02*
Y11917D01*
X1955D02*
Y11880D01*
X2031D02*
Y11917D01*
X2107D02*
Y11880D01*
X2183D02*
Y11917D01*
X2259D02*
Y11880D01*
X2335D02*
Y11917D01*
X2411D02*
Y11880D01*
X2487D02*
Y11917D01*
X2563D02*
Y11880D01*
G54D10*
X2712Y11805D02*
Y13719D01*
X2525D01*
Y11992D01*
X438D01*
Y11805D01*
X2712D01*
Y16153D02*
X438D01*
Y15966D01*
X2525D01*
Y14239D01*
X2712D01*
Y16153D01*
X2707Y16148D02*
X443D01*
Y15971D01*
X2530D01*
Y14244D01*
X2707D01*
Y16148D01*
G54D11*
X2697Y16138D02*
X453D01*
Y15981D01*
X2540D01*
Y14254D01*
X2697D01*
Y16138D01*
G54D12*
X2677Y16118D02*
X473D01*
Y16001D01*
X2560D01*
Y14274D01*
X2677D01*
Y16118D01*
G54D13*
X2637Y16078D02*
X513D01*
Y16041D01*
X2600D01*
Y14314D01*
X2637D01*
Y16078D01*
X2637Y16078D02*
X2600Y16041D01*
X2618Y16059D02*
X513D01*
X2637Y15196D02*
X2600D01*
Y15272D02*
X2637D01*
Y15348D02*
X2600D01*
Y15424D02*
X2637D01*
Y15500D02*
X2600D01*
Y15576D02*
X2637D01*
Y15652D02*
X2600D01*
Y15728D02*
X2637D01*
Y15804D02*
X2600D01*
Y15880D02*
X2637D01*
Y15956D02*
X2600D01*
Y16032D02*
X2637D01*
Y15120D02*
X2600D01*
Y15044D02*
X2637D01*
Y14968D02*
X2600D01*
Y14892D02*
X2637D01*
Y14816D02*
X2600D01*
Y14740D02*
X2637D01*
Y14664D02*
X2600D01*
Y14588D02*
X2637D01*
Y14512D02*
X2600D01*
Y14436D02*
X2637D01*
Y14360D02*
X2600D01*
G54D10*
X2712Y16153D02*
X438D01*
Y15966D01*
X2525D01*
Y14239D01*
X2712D01*
Y16153D01*
X2318Y283D02*
Y2197D01*
X2131D01*
Y470D01*
X44D01*
Y283D01*
X2318D01*
X2313Y288D02*
Y2192D01*
X2136D01*
Y465D01*
X49D01*
Y288D01*
X2313D01*
G54D11*
X2303Y298D02*
Y2182D01*
X2146D01*
Y455D01*
X59D01*
Y298D01*
X2303D01*
G54D12*
X2283Y318D02*
Y2162D01*
X2166D01*
Y435D01*
X79D01*
Y318D01*
X2283D01*
G54D13*
X2243Y358D02*
Y2122D01*
X2206D01*
Y395D01*
X119D01*
Y358D01*
X2243D01*
X2243Y358D02*
X2206Y395D01*
X2224Y2122D02*
Y377D01*
X1181Y395D02*
Y358D01*
X1105D02*
Y395D01*
X1029D02*
Y358D01*
X953D02*
Y395D01*
X877D02*
Y358D01*
X801D02*
Y395D01*
X725D02*
Y358D01*
X649D02*
Y395D01*
X573D02*
Y358D01*
X497D02*
Y395D01*
X421D02*
Y358D01*
X345D02*
Y395D01*
X269D02*
Y358D01*
X193D02*
Y395D01*
X1257D02*
Y358D01*
X1333D02*
Y395D01*
X1409D02*
Y358D01*
X1485D02*
Y395D01*
X1561D02*
Y358D01*
X1637D02*
Y395D01*
X1713D02*
Y358D01*
X1789D02*
Y395D01*
X1865D02*
Y358D01*
X1941D02*
Y395D01*
X2017D02*
Y358D01*
X2093D02*
Y395D01*
X2169D02*
Y358D01*
G54D10*
X2318Y283D02*
Y2197D01*
X2131D01*
Y470D01*
X44D01*
Y283D01*
X2318D01*
Y4630D02*
X44D01*
Y4443D01*
X2131D01*
Y2717D01*
X2318D01*
Y4630D01*
X2313Y4625D02*
X49D01*
Y4448D01*
X2136D01*
Y2722D01*
X2313D01*
Y4625D01*
G54D11*
X2303Y4615D02*
X59D01*
Y4458D01*
X2146D01*
Y2732D01*
X2303D01*
Y4615D01*
G54D12*
X2283Y4595D02*
X79D01*
Y4478D01*
X2166D01*
Y2752D01*
X2283D01*
Y4595D01*
G54D13*
X2243Y4555D02*
X119D01*
Y4518D01*
X2206D01*
Y2792D01*
X2243D01*
Y4555D01*
X2243Y4555D02*
X2206Y4518D01*
X2224Y4537D02*
X119D01*
X2243Y3674D02*
X2206D01*
Y3750D02*
X2243D01*
Y3826D02*
X2206D01*
Y3902D02*
X2243D01*
Y3978D02*
X2206D01*
Y4054D02*
X2243D01*
Y4130D02*
X2206D01*
Y4206D02*
X2243D01*
Y4282D02*
X2206D01*
Y4358D02*
X2243D01*
Y4434D02*
X2206D01*
Y4510D02*
X2243D01*
Y3598D02*
X2206D01*
Y3522D02*
X2243D01*
Y3446D02*
X2206D01*
Y3370D02*
X2243D01*
Y3294D02*
X2206D01*
Y3218D02*
X2243D01*
Y3142D02*
X2206D01*
Y3066D02*
X2243D01*
Y2990D02*
X2206D01*
Y2914D02*
X2243D01*
Y2838D02*
X2206D01*
G54D10*
X2318Y4630D02*
X44D01*
Y4443D01*
X2131D01*
Y2717D01*
X2318D01*
Y4630D01*
X4277Y16153D02*
Y14239D01*
X4464D01*
Y15966D01*
X6551D01*
Y16153D01*
X4277D01*
X4282Y16148D02*
Y14244D01*
X4459D01*
Y15971D01*
X6546D01*
Y16148D01*
X4282D01*
G54D11*
X4292Y16138D02*
Y14254D01*
X4449D01*
Y15981D01*
X6536D01*
Y16138D01*
X4292D01*
G54D12*
X4312Y16118D02*
Y14274D01*
X4429D01*
Y16001D01*
X6516D01*
Y16118D01*
X4312D01*
G54D13*
X4352Y16078D02*
Y14314D01*
X4389D01*
Y16041D01*
X6476D01*
Y16078D01*
X4352D01*
X5414Y16078D02*
Y16041D01*
X5338D02*
Y16078D01*
X5262D02*
Y16041D01*
X5186D02*
Y16078D01*
X5110D02*
Y16041D01*
X5034D02*
Y16078D01*
X4958D02*
Y16041D01*
X4882D02*
Y16078D01*
X4806D02*
Y16041D01*
X4730D02*
Y16078D01*
X4654D02*
Y16041D01*
X4578D02*
Y16078D01*
X4502D02*
Y16041D01*
X4426D02*
Y16078D01*
X5490D02*
Y16041D01*
X5566D02*
Y16078D01*
X5642D02*
Y16041D01*
X5718D02*
Y16078D01*
X5794D02*
Y16041D01*
X5870D02*
Y16078D01*
X5946D02*
Y16041D01*
X6022D02*
Y16078D01*
X6098D02*
Y16041D01*
X6174D02*
Y16078D01*
X6250D02*
Y16041D01*
X6326D02*
Y16078D01*
X6402D02*
Y16041D01*
G54D10*
X4277Y16153D02*
Y14239D01*
X4464D01*
Y15966D01*
X6551D01*
Y16153D01*
X4277D01*
Y11805D02*
X6551D01*
Y11992D01*
X4464D01*
Y13719D01*
X4277D01*
Y11805D01*
X4282Y11810D02*
X6546D01*
Y11987D01*
X4459D01*
Y13714D01*
X4282D01*
Y11810D01*
G54D11*
X4292Y11820D02*
X6536D01*
Y11977D01*
X4449D01*
Y13704D01*
X4292D01*
Y11820D01*
G54D12*
X4312Y11840D02*
X6516D01*
Y11957D01*
X4429D01*
Y13684D01*
X4312D01*
Y11840D01*
G54D13*
X4352Y11880D02*
X6476D01*
Y11917D01*
X4389D01*
Y13644D01*
X4352D01*
Y11880D01*
X4352Y11880D02*
X4389Y11917D01*
X6476Y11899D02*
X4371D01*
X4389Y12762D02*
X4352D01*
Y12838D02*
X4389D01*
Y12914D02*
X4352D01*
Y12990D02*
X4389D01*
Y13066D02*
X4352D01*
Y13142D02*
X4389D01*
Y13218D02*
X4352D01*
Y13294D02*
X4389D01*
Y13370D02*
X4352D01*
Y13446D02*
X4389D01*
Y13522D02*
X4352D01*
Y13598D02*
X4389D01*
Y12686D02*
X4352D01*
Y12610D02*
X4389D01*
Y12534D02*
X4352D01*
Y12458D02*
X4389D01*
Y12382D02*
X4352D01*
Y12306D02*
X4389D01*
Y12230D02*
X4352D01*
Y12154D02*
X4389D01*
Y12078D02*
X4352D01*
Y12002D02*
X4389D01*
Y11926D02*
X4352D01*
G54D10*
X4277Y11805D02*
X6551D01*
Y11992D01*
X4464D01*
Y13719D01*
X4277D01*
Y11805D01*
X4671Y11323D02*
Y9410D01*
X4858D01*
Y11137D01*
X6944D01*
Y11323D01*
X4671D01*
X4676Y11318D02*
Y9415D01*
X4853D01*
Y11142D01*
X6939D01*
Y11318D01*
X4676D01*
G54D11*
X4686Y11308D02*
Y9425D01*
X4843D01*
Y11152D01*
X6929D01*
Y11308D01*
X4686D01*
G54D12*
X4706Y11288D02*
Y9445D01*
X4823D01*
Y11172D01*
X6909D01*
Y11288D01*
X4706D01*
G54D13*
X4746Y11248D02*
Y9485D01*
X4783D01*
Y11212D01*
X6869D01*
Y11248D01*
X4746D01*
X5808Y11248D02*
Y11212D01*
X5732D02*
Y11248D01*
X5656D02*
Y11212D01*
X5580D02*
Y11248D01*
X5504D02*
Y11212D01*
X5428D02*
Y11248D01*
X5352D02*
Y11212D01*
X5276D02*
Y11248D01*
X5200D02*
Y11212D01*
X5124D02*
Y11248D01*
X5048D02*
Y11212D01*
X4972D02*
Y11248D01*
X4896D02*
Y11212D01*
X4820D02*
Y11248D01*
X5884D02*
Y11212D01*
X5960D02*
Y11248D01*
X6036D02*
Y11212D01*
X6112D02*
Y11248D01*
X6188D02*
Y11212D01*
X6264D02*
Y11248D01*
X6340D02*
Y11212D01*
X6416D02*
Y11248D01*
X6492D02*
Y11212D01*
X6568D02*
Y11248D01*
X6644D02*
Y11212D01*
X6720D02*
Y11248D01*
X6796D02*
Y11212D01*
G54D10*
X4671Y11323D02*
Y9410D01*
X4858D01*
Y11137D01*
X6944D01*
Y11323D01*
X4671D01*
Y6976D02*
X6944D01*
Y7163D01*
X4858D01*
Y8890D01*
X4671D01*
Y6976D01*
X4676Y6981D02*
X6939D01*
Y7158D01*
X4853D01*
Y8885D01*
X4676D01*
Y6981D01*
G54D11*
X4686Y6991D02*
X6929D01*
Y7148D01*
X4843D01*
Y8875D01*
X4686D01*
Y6991D01*
G54D12*
X4706Y7011D02*
X6909D01*
Y7128D01*
X4823D01*
Y8855D01*
X4706D01*
Y7011D01*
G54D13*
X4746Y7051D02*
X6869D01*
Y7088D01*
X4783D01*
Y8815D01*
X4746D01*
Y7051D01*
X4746Y7051D02*
X4783Y7088D01*
X6869Y7070D02*
X4764D01*
X4783Y7933D02*
X4746D01*
Y8009D02*
X4783D01*
Y8085D02*
X4746D01*
Y8161D02*
X4783D01*
Y8237D02*
X4746D01*
Y8313D02*
X4783D01*
Y8389D02*
X4746D01*
Y8465D02*
X4783D01*
Y8541D02*
X4746D01*
Y8617D02*
X4783D01*
Y8693D02*
X4746D01*
Y8769D02*
X4783D01*
Y7857D02*
X4746D01*
Y7781D02*
X4783D01*
Y7705D02*
X4746D01*
Y7629D02*
X4783D01*
Y7553D02*
X4746D01*
Y7477D02*
X4783D01*
Y7401D02*
X4746D01*
Y7325D02*
X4783D01*
Y7249D02*
X4746D01*
Y7173D02*
X4783D01*
Y7097D02*
X4746D01*
G54D10*
X4671Y6976D02*
X6944D01*
Y7163D01*
X4858D01*
Y8890D01*
X4671D01*
Y6976D01*
Y283D02*
X6944D01*
Y470D01*
X4858D01*
Y2197D01*
X4671D01*
Y283D01*
X4676Y288D02*
X6939D01*
Y465D01*
X4853D01*
Y2192D01*
X4676D01*
Y288D01*
G54D11*
X4686Y298D02*
X6929D01*
Y455D01*
X4843D01*
Y2182D01*
X4686D01*
Y298D01*
G54D12*
X4706Y318D02*
X6909D01*
Y435D01*
X4823D01*
Y2162D01*
X4706D01*
Y318D01*
G54D13*
X4746Y358D02*
X6869D01*
Y395D01*
X4783D01*
Y2122D01*
X4746D01*
Y358D01*
X4746Y358D02*
X4783Y395D01*
X6869Y377D02*
X4764D01*
X4783Y1240D02*
X4746D01*
Y1316D02*
X4783D01*
Y1392D02*
X4746D01*
Y1468D02*
X4783D01*
Y1544D02*
X4746D01*
Y1620D02*
X4783D01*
Y1696D02*
X4746D01*
Y1772D02*
X4783D01*
Y1848D02*
X4746D01*
Y1924D02*
X4783D01*
Y2000D02*
X4746D01*
Y2076D02*
X4783D01*
Y1164D02*
X4746D01*
Y1088D02*
X4783D01*
Y1012D02*
X4746D01*
Y936D02*
X4783D01*
Y860D02*
X4746D01*
Y784D02*
X4783D01*
Y708D02*
X4746D01*
Y632D02*
X4783D01*
Y556D02*
X4746D01*
Y480D02*
X4783D01*
Y404D02*
X4746D01*
G54D10*
X4671Y283D02*
X6944D01*
Y470D01*
X4858D01*
Y2197D01*
X4671D01*
Y283D01*
X3269Y3796D02*
X3056D01*
Y3747D01*
X3220D01*
Y3477D01*
X3056D01*
Y3428D01*
X3269D01*
Y3796D01*
X3264Y3791D02*
X3061D01*
Y3752D01*
X3225D01*
Y3472D01*
X3061D01*
Y3433D01*
X3264D01*
Y3791D01*
G54D11*
X3254Y3781D02*
X3071D01*
Y3762D01*
X3235D01*
Y3462D01*
X3071D01*
Y3443D01*
X3254D01*
Y3781D01*
X3240Y3767D02*
X3249Y3776D01*
X3244Y3772D02*
X3071D01*
X3249Y3448D02*
X3240Y3457D01*
X3244Y3453D02*
X3071D01*
X3254Y3612D02*
X3235D01*
Y3631D02*
X3254D01*
Y3650D02*
X3235D01*
Y3669D02*
X3254D01*
Y3688D02*
X3235D01*
Y3707D02*
X3254D01*
Y3726D02*
X3235D01*
Y3745D02*
X3254D01*
Y3764D02*
X3071D01*
X3235Y3593D02*
X3254D01*
Y3574D02*
X3235D01*
Y3555D02*
X3254D01*
Y3536D02*
X3235D01*
Y3517D02*
X3254D01*
Y3498D02*
X3235D01*
Y3479D02*
X3254D01*
Y3460D02*
X3071D01*
G54D10*
X3269Y3796D02*
X3056D01*
Y3747D01*
X3220D01*
Y3477D01*
X3056D01*
Y3428D01*
X3269D01*
Y3796D01*
X2676D02*
Y3428D01*
X2889D01*
Y3477D01*
X2726D01*
Y3747D01*
X2889D01*
Y3796D01*
X2676D01*
X2681Y3791D02*
Y3433D01*
X2884D01*
Y3472D01*
X2721D01*
Y3752D01*
X2884D01*
Y3791D01*
X2681D01*
G54D11*
X2691Y3781D02*
Y3443D01*
X2874D01*
Y3462D01*
X2711D01*
Y3762D01*
X2874D01*
Y3781D01*
X2691D01*
X2783Y3462D02*
Y3443D01*
Y3762D02*
Y3781D01*
X2764Y3462D02*
Y3443D01*
Y3762D02*
Y3781D01*
X2745Y3462D02*
Y3443D01*
Y3762D02*
Y3781D01*
X2726Y3462D02*
Y3443D01*
Y3762D02*
Y3781D01*
X2707D02*
Y3443D01*
X2802D02*
Y3462D01*
Y3762D02*
Y3781D01*
X2821Y3462D02*
Y3443D01*
Y3762D02*
Y3781D01*
X2840Y3462D02*
Y3443D01*
Y3762D02*
Y3781D01*
X2859Y3462D02*
Y3443D01*
Y3762D02*
Y3781D01*
G54D10*
X2676Y3796D02*
Y3428D01*
X2889D01*
Y3477D01*
X2726D01*
Y3747D01*
X2889D01*
Y3796D01*
X2676D01*
X596Y8987D02*
X645D01*
Y9313D01*
X596D01*
Y8987D01*
X601Y8992D02*
X640D01*
Y9308D01*
X601D01*
Y8992D01*
G54D11*
X611Y9002D02*
X630D01*
Y9298D01*
X611D01*
Y9002D01*
X620Y9298D02*
Y9002D01*
G54D10*
X596Y8987D02*
X645D01*
Y9313D01*
X596D01*
Y8987D01*
X2318Y6976D02*
Y8890D01*
X2131D01*
Y7163D01*
X44D01*
Y6976D01*
X2318D01*
X2313Y6981D02*
Y8885D01*
X2136D01*
Y7158D01*
X49D01*
Y6981D01*
X2313D01*
G54D11*
X2303Y6991D02*
Y8875D01*
X2146D01*
Y7148D01*
X59D01*
Y6991D01*
X2303D01*
G54D12*
X2283Y7011D02*
Y8855D01*
X2166D01*
Y7128D01*
X79D01*
Y7011D01*
X2283D01*
G54D13*
X2243Y7051D02*
Y8815D01*
X2206D01*
Y7088D01*
X119D01*
Y7051D01*
X2243D01*
X2243Y7051D02*
X2206Y7088D01*
X2224Y8815D02*
Y7070D01*
X1181Y7088D02*
Y7051D01*
X1105D02*
Y7088D01*
X1029D02*
Y7051D01*
X953D02*
Y7088D01*
X877D02*
Y7051D01*
X801D02*
Y7088D01*
X725D02*
Y7051D01*
X649D02*
Y7088D01*
X573D02*
Y7051D01*
X497D02*
Y7088D01*
X421D02*
Y7051D01*
X345D02*
Y7088D01*
X269D02*
Y7051D01*
X193D02*
Y7088D01*
X1257D02*
Y7051D01*
X1333D02*
Y7088D01*
X1409D02*
Y7051D01*
X1485D02*
Y7088D01*
X1561D02*
Y7051D01*
X1637D02*
Y7088D01*
X1713D02*
Y7051D01*
X1789D02*
Y7088D01*
X1865D02*
Y7051D01*
X1941D02*
Y7088D01*
X2017D02*
Y7051D01*
X2093D02*
Y7088D01*
X2169D02*
Y7051D01*
G54D10*
X2318Y6976D02*
Y8890D01*
X2131D01*
Y7163D01*
X44D01*
Y6976D01*
X2318D01*
Y11323D02*
X44D01*
Y11137D01*
X2131D01*
Y9410D01*
X2318D01*
Y11323D01*
X2313Y11318D02*
X49D01*
Y11142D01*
X2136D01*
Y9415D01*
X2313D01*
Y11318D01*
G54D11*
X2303Y11308D02*
X59D01*
Y11152D01*
X2146D01*
Y9425D01*
X2303D01*
Y11308D01*
G54D12*
X2283Y11288D02*
X79D01*
Y11172D01*
X2166D01*
Y9445D01*
X2283D01*
Y11288D01*
G54D13*
X2243Y11248D02*
X119D01*
Y11212D01*
X2206D01*
Y9485D01*
X2243D01*
Y11248D01*
X2243Y11248D02*
X2206Y11212D01*
X2224Y11230D02*
X119D01*
X2243Y10367D02*
X2206D01*
Y10443D02*
X2243D01*
Y10519D02*
X2206D01*
Y10595D02*
X2243D01*
Y10671D02*
X2206D01*
Y10747D02*
X2243D01*
Y10823D02*
X2206D01*
Y10899D02*
X2243D01*
Y10975D02*
X2206D01*
Y11051D02*
X2243D01*
Y11127D02*
X2206D01*
Y11203D02*
X2243D01*
Y10291D02*
X2206D01*
Y10215D02*
X2243D01*
Y10139D02*
X2206D01*
Y10063D02*
X2243D01*
Y9987D02*
X2206D01*
Y9911D02*
X2243D01*
Y9835D02*
X2206D01*
Y9759D02*
X2243D01*
Y9683D02*
X2206D01*
Y9607D02*
X2243D01*
Y9531D02*
X2206D01*
G54D10*
X2318Y11323D02*
X44D01*
Y11137D01*
X2131D01*
Y9410D01*
X2318D01*
Y11323D01*
X3154Y3042D02*
Y2905D01*
X3283D01*
Y2796D01*
X3154D01*
Y2708D01*
X3283D01*
Y2599D01*
X3154D01*
Y2511D01*
X3283D01*
Y2403D01*
X3154D01*
Y2314D01*
X3283D01*
Y2206D01*
X2958D01*
Y2314D01*
X3086D01*
Y2403D01*
X2958D01*
Y2511D01*
X3086D01*
Y2599D01*
X2958D01*
Y2708D01*
X3086D01*
Y2796D01*
X2958D01*
Y2905D01*
X3086D01*
Y3042D01*
X2869D01*
Y2068D01*
X4119D01*
Y3042D01*
X3902D01*
Y2905D01*
X4031D01*
Y2796D01*
X3902D01*
Y2708D01*
X4031D01*
Y2599D01*
X3902D01*
Y2511D01*
X4031D01*
Y2403D01*
X3902D01*
Y2314D01*
X4031D01*
Y2206D01*
X3706D01*
Y2314D01*
X3834D01*
Y2403D01*
X3706D01*
Y2511D01*
X3834D01*
Y2599D01*
X3706D01*
Y2708D01*
X3834D01*
Y2796D01*
X3706D01*
Y2905D01*
X3834D01*
Y3042D01*
X3556D01*
Y2806D01*
X3627D01*
Y2304D01*
X3361D01*
Y2749D01*
X3419Y2806D01*
X3488D01*
Y3042D01*
X3154D01*
X3159Y3037D02*
Y2910D01*
X3288D01*
Y2791D01*
X3159D01*
Y2713D01*
X3288D01*
Y2594D01*
X3159D01*
Y2516D01*
X3288D01*
Y2398D01*
X3159D01*
Y2319D01*
X3288D01*
Y2201D01*
X2953D01*
Y2319D01*
X3081D01*
Y2398D01*
X2953D01*
Y2516D01*
X3081D01*
Y2594D01*
X2953D01*
Y2713D01*
X3081D01*
Y2791D01*
X2953D01*
Y2910D01*
X3081D01*
Y3037D01*
X2874D01*
Y2073D01*
X4114D01*
Y3037D01*
X3907D01*
Y2910D01*
X4036D01*
Y2791D01*
X3907D01*
Y2713D01*
X4036D01*
Y2594D01*
X3907D01*
Y2516D01*
X4036D01*
Y2398D01*
X3907D01*
Y2319D01*
X4036D01*
Y2201D01*
X3701D01*
Y2319D01*
X3829D01*
Y2398D01*
X3701D01*
Y2516D01*
X3829D01*
Y2594D01*
X3701D01*
Y2713D01*
X3829D01*
Y2791D01*
X3701D01*
Y2910D01*
X3829D01*
Y3037D01*
X3561D01*
Y2811D01*
X3632D01*
Y2299D01*
X3356D01*
Y2751D01*
X3417Y2811D01*
X3483D01*
Y3037D01*
X3159D01*
G54D11*
X3169Y3027D02*
Y2920D01*
X3298D01*
Y2781D01*
X3169D01*
Y2723D01*
X3298D01*
Y2584D01*
X3169D01*
Y2526D01*
X3298D01*
Y2388D01*
X3169D01*
Y2329D01*
X3298D01*
Y2191D01*
X2943D01*
Y2329D01*
X3071D01*
Y2388D01*
X2943D01*
Y2526D01*
X3071D01*
Y2584D01*
X2943D01*
Y2723D01*
X3071D01*
Y2781D01*
X2943D01*
Y2920D01*
X3071D01*
Y3027D01*
X2884D01*
Y2083D01*
X4104D01*
Y3027D01*
X3917D01*
Y2920D01*
X4046D01*
Y2781D01*
X3917D01*
Y2723D01*
X4046D01*
Y2584D01*
X3917D01*
Y2526D01*
X4046D01*
Y2388D01*
X3917D01*
Y2329D01*
X4046D01*
Y2191D01*
X3691D01*
Y2329D01*
X3819D01*
Y2388D01*
X3691D01*
Y2526D01*
X3819D01*
Y2584D01*
X3691D01*
Y2723D01*
X3819D01*
Y2781D01*
X3691D01*
Y2920D01*
X3819D01*
Y3027D01*
X3571D01*
Y2821D01*
X3642D01*
Y2289D01*
X3346D01*
Y2755D01*
X3413Y2821D01*
X3473D01*
Y3027D01*
X3169D01*
G54D12*
X3189Y3007D02*
Y2940D01*
X3318D01*
Y2761D01*
X3189D01*
Y2743D01*
X3318D01*
Y2564D01*
X3189D01*
Y2546D01*
X3318D01*
Y2368D01*
X3189D01*
Y2349D01*
X3318D01*
Y2171D01*
X2923D01*
Y2349D01*
X3051D01*
Y2368D01*
X2923D01*
Y2546D01*
X3051D01*
Y2564D01*
X2923D01*
Y2743D01*
X3051D01*
Y2761D01*
X2923D01*
Y2940D01*
X3051D01*
Y3007D01*
X2904D01*
Y2103D01*
X4084D01*
Y3007D01*
X3937D01*
Y2940D01*
X4066D01*
Y2761D01*
X3937D01*
Y2743D01*
X4066D01*
Y2564D01*
X3937D01*
Y2546D01*
X4066D01*
Y2368D01*
X3937D01*
Y2349D01*
X4066D01*
Y2171D01*
X3671D01*
Y2349D01*
X3799D01*
Y2368D01*
X3671D01*
Y2546D01*
X3799D01*
Y2564D01*
X3671D01*
Y2743D01*
X3799D01*
Y2761D01*
X3671D01*
Y2940D01*
X3799D01*
Y3007D01*
X3591D01*
Y2841D01*
X3662D01*
Y2269D01*
X3326D01*
Y2763D01*
X3404Y2841D01*
X3453D01*
Y3007D01*
X3189D01*
X3318Y2761D02*
Y2743D01*
Y2752D02*
X3189D01*
X3318Y2564D02*
Y2546D01*
Y2555D02*
X3189D01*
X3318Y2368D02*
Y2349D01*
Y2358D02*
X3189D01*
X2923Y2349D02*
Y2368D01*
X3051Y2358D02*
X2923D01*
Y2546D02*
Y2564D01*
X3051Y2555D02*
X2923D01*
Y2743D02*
Y2761D01*
X3051Y2752D02*
X2923D01*
X4066Y2761D02*
Y2743D01*
Y2752D02*
X3937D01*
X4066Y2564D02*
Y2546D01*
Y2555D02*
X3937D01*
X4066Y2368D02*
Y2349D01*
Y2358D02*
X3937D01*
X3671Y2349D02*
Y2368D01*
X3799Y2358D02*
X3671D01*
Y2546D02*
Y2564D01*
X3799Y2555D02*
X3671D01*
Y2743D02*
Y2761D01*
X3799Y2752D02*
X3671D01*
X3494Y2269D02*
Y2103D01*
X3456D02*
Y2269D01*
X3418D02*
Y2103D01*
Y2841D02*
Y3007D01*
X3380Y2269D02*
Y2103D01*
Y2817D02*
Y3007D01*
X3342Y2269D02*
Y2103D01*
Y2779D02*
Y3007D01*
X3304Y2171D02*
Y2103D01*
Y2349D02*
Y2368D01*
Y2546D02*
Y2564D01*
Y2743D02*
Y2761D01*
Y2940D02*
Y3007D01*
X3266Y2171D02*
Y2103D01*
Y2349D02*
Y2368D01*
Y2546D02*
Y2564D01*
Y2743D02*
Y2761D01*
Y2940D02*
Y3007D01*
X3228Y2171D02*
Y2103D01*
Y2349D02*
Y2368D01*
Y2546D02*
Y2564D01*
Y2743D02*
Y2761D01*
Y2940D02*
Y3007D01*
X3190Y2171D02*
Y2103D01*
Y2349D02*
Y2368D01*
Y2546D02*
Y2564D01*
Y2743D02*
Y2761D01*
Y2940D02*
Y3007D01*
X3152Y2171D02*
Y2103D01*
X3114D02*
Y2171D01*
X3076D02*
Y2103D01*
X3038D02*
Y2171D01*
Y2349D02*
Y2368D01*
Y2546D02*
Y2564D01*
Y2743D02*
Y2761D01*
Y2940D02*
Y3007D01*
X3000Y2171D02*
Y2103D01*
Y2349D02*
Y2368D01*
Y2546D02*
Y2564D01*
Y2743D02*
Y2761D01*
Y2940D02*
Y3007D01*
X2962Y2171D02*
Y2103D01*
Y2349D02*
Y2368D01*
Y2546D02*
Y2564D01*
Y2743D02*
Y2761D01*
Y2940D02*
Y3007D01*
X2924Y2171D02*
Y2103D01*
Y2349D02*
Y2368D01*
Y2546D02*
Y2564D01*
Y2743D02*
Y2761D01*
Y2940D02*
Y3007D01*
X3532Y2269D02*
Y2103D01*
X3570D02*
Y2269D01*
X3608D02*
Y2103D01*
Y2841D02*
Y3007D01*
X3646Y2269D02*
Y2103D01*
Y2841D02*
Y3007D01*
X3684Y2171D02*
Y2103D01*
Y2349D02*
Y2368D01*
Y2546D02*
Y2564D01*
Y2743D02*
Y2761D01*
Y2940D02*
Y3007D01*
X3722Y2171D02*
Y2103D01*
Y2349D02*
Y2368D01*
Y2546D02*
Y2564D01*
Y2743D02*
Y2761D01*
Y2940D02*
Y3007D01*
X3760Y2171D02*
Y2103D01*
Y2349D02*
Y2368D01*
Y2546D02*
Y2564D01*
Y2743D02*
Y2761D01*
Y2940D02*
Y3007D01*
X3798Y2171D02*
Y2103D01*
Y2349D02*
Y2368D01*
Y2546D02*
Y2564D01*
Y2743D02*
Y2761D01*
Y2940D02*
Y3007D01*
X3836Y2171D02*
Y2103D01*
X3874D02*
Y2171D01*
X3912D02*
Y2103D01*
X3950D02*
Y2171D01*
Y2349D02*
Y2368D01*
Y2546D02*
Y2564D01*
Y2743D02*
Y2761D01*
Y2940D02*
Y3007D01*
X3988Y2171D02*
Y2103D01*
Y2349D02*
Y2368D01*
Y2546D02*
Y2564D01*
Y2743D02*
Y2761D01*
Y2940D02*
Y3007D01*
X4026Y2171D02*
Y2103D01*
Y2349D02*
Y2368D01*
Y2546D02*
Y2564D01*
Y2743D02*
Y2761D01*
Y2940D02*
Y3007D01*
X4064Y2171D02*
Y2103D01*
Y2349D02*
Y2368D01*
Y2546D02*
Y2564D01*
Y2743D02*
Y2761D01*
Y2940D02*
Y3007D01*
G54D10*
X3154Y3042D02*
Y2905D01*
X3283D01*
Y2796D01*
X3154D01*
Y2708D01*
X3283D01*
Y2599D01*
X3154D01*
Y2511D01*
X3283D01*
Y2403D01*
X3154D01*
Y2314D01*
X3283D01*
Y2206D01*
X2958D01*
Y2314D01*
X3086D01*
Y2403D01*
X2958D01*
Y2511D01*
X3086D01*
Y2599D01*
X2958D01*
Y2708D01*
X3086D01*
Y2796D01*
X2958D01*
Y2905D01*
X3086D01*
Y3042D01*
X2869D01*
Y2068D01*
X4119D01*
Y3042D01*
X3902D01*
Y2905D01*
X4031D01*
Y2796D01*
X3902D01*
Y2708D01*
X4031D01*
Y2599D01*
X3902D01*
Y2511D01*
X4031D01*
Y2403D01*
X3902D01*
Y2314D01*
X4031D01*
Y2206D01*
X3706D01*
Y2314D01*
X3834D01*
Y2403D01*
X3706D01*
Y2511D01*
X3834D01*
Y2599D01*
X3706D01*
Y2708D01*
X3834D01*
Y2796D01*
X3706D01*
Y2905D01*
X3834D01*
Y3042D01*
X3556D01*
Y2806D01*
X3627D01*
Y2304D01*
X3361D01*
Y2749D01*
X3419Y2806D01*
X3488D01*
Y3042D01*
X3154D01*
X4868Y3631D02*
Y4027D01*
X4779D01*
Y3942D01*
X4612D01*
Y4027D01*
X4465D01*
Y3942D01*
X4297D01*
Y4149D01*
X4465D01*
Y4064D01*
X4612D01*
Y4149D01*
X4779D01*
Y4064D01*
X4868D01*
Y4443D01*
X6944D01*
Y4630D01*
X4671D01*
Y4237D01*
X4209D01*
Y3420D01*
X4671D01*
Y3154D01*
X4343D01*
Y2810D01*
X4392D01*
Y3105D01*
X4736D01*
Y2810D01*
X4868D01*
Y3594D01*
X4779D01*
Y3509D01*
X4612D01*
Y3594D01*
X4465D01*
Y3509D01*
X4297D01*
Y3716D01*
X4465D01*
Y3631D01*
X4612D01*
Y3716D01*
X4779D01*
Y3631D01*
X4868D01*
X4863Y3636D02*
Y4022D01*
X4784D01*
Y3937D01*
X4607D01*
Y4022D01*
X4470D01*
Y3937D01*
X4292D01*
Y4154D01*
X4470D01*
Y4069D01*
X4607D01*
Y4154D01*
X4784D01*
Y4069D01*
X4863D01*
Y4448D01*
X6939D01*
Y4625D01*
X4676D01*
Y4232D01*
X4214D01*
Y3425D01*
X4676D01*
Y3149D01*
X4348D01*
Y2815D01*
X4387D01*
Y3110D01*
X4741D01*
Y2815D01*
X4863D01*
Y3589D01*
X4784D01*
Y3504D01*
X4607D01*
Y3589D01*
X4470D01*
Y3504D01*
X4292D01*
Y3721D01*
X4470D01*
Y3636D01*
X4607D01*
Y3721D01*
X4784D01*
Y3636D01*
X4863D01*
G54D11*
X4853Y3646D02*
Y4012D01*
X4794D01*
Y3927D01*
X4597D01*
Y4012D01*
X4480D01*
Y3927D01*
X4282D01*
Y4164D01*
X4480D01*
Y4079D01*
X4597D01*
Y4164D01*
X4794D01*
Y4079D01*
X4853D01*
Y4458D01*
X6929D01*
Y4615D01*
X4686D01*
Y4222D01*
X4224D01*
Y3435D01*
X4686D01*
Y3139D01*
X4358D01*
Y2825D01*
X4377D01*
Y3120D01*
X4751D01*
Y2825D01*
X4853D01*
Y3579D01*
X4794D01*
Y3494D01*
X4597D01*
Y3579D01*
X4480D01*
Y3494D01*
X4282D01*
Y3731D01*
X4480D01*
Y3646D01*
X4597D01*
Y3731D01*
X4794D01*
Y3646D01*
X4853D01*
X4372Y3125D02*
X4363Y3135D01*
X4367Y3130D02*
Y2825D01*
X4282Y3720D02*
X4224D01*
X4480D02*
X4597D01*
X4794D02*
X4853D01*
Y3739D02*
X4224D01*
Y3758D02*
X4853D01*
Y3777D02*
X4224D01*
Y3796D02*
X4853D01*
Y3815D02*
X4224D01*
Y3834D02*
X4853D01*
Y3853D02*
X4224D01*
Y3872D02*
X4853D01*
Y3891D02*
X4224D01*
Y3910D02*
X4853D01*
X4282Y3929D02*
X4224D01*
X4480D02*
X4597D01*
X4794D02*
X4853D01*
X4282Y3948D02*
X4224D01*
X4480D02*
X4597D01*
X4794D02*
X4853D01*
X4282Y3967D02*
X4224D01*
X4480D02*
X4597D01*
X4794D02*
X4853D01*
X4282Y3986D02*
X4224D01*
X4480D02*
X4597D01*
X4794D02*
X4853D01*
X4282Y4005D02*
X4224D01*
X4480D02*
X4597D01*
X4794D02*
X4853D01*
X4282Y4024D02*
X4224D01*
Y4043D02*
X4282D01*
Y4062D02*
X4224D01*
Y4081D02*
X4282D01*
X4480D02*
X4597D01*
X4794D02*
X4853D01*
X4282Y4100D02*
X4224D01*
X4480D02*
X4597D01*
X4794D02*
X4853D01*
X4282Y4119D02*
X4224D01*
X4480D02*
X4597D01*
X4794D02*
X4853D01*
X4282Y4138D02*
X4224D01*
X4480D02*
X4597D01*
X4794D02*
X4853D01*
X4282Y4157D02*
X4224D01*
X4480D02*
X4597D01*
X4794D02*
X4853D01*
Y4176D02*
X4224D01*
Y4195D02*
X4853D01*
Y4214D02*
X4224D01*
X4686Y4233D02*
X4853D01*
Y4252D02*
X4686D01*
Y4271D02*
X4853D01*
Y4290D02*
X4686D01*
Y4309D02*
X4853D01*
Y4328D02*
X4686D01*
Y4347D02*
X4853D01*
Y4366D02*
X4686D01*
Y4385D02*
X4853D01*
Y4404D02*
X4686D01*
Y4423D02*
X4853D01*
Y4442D02*
X4686D01*
Y4461D02*
X6929D01*
Y4480D02*
X4686D01*
Y4499D02*
X6929D01*
Y4518D02*
X4686D01*
Y4537D02*
X6929D01*
Y4556D02*
X4686D01*
Y4575D02*
X6929D01*
Y4594D02*
X4686D01*
Y4613D02*
X6929D01*
X4282Y3701D02*
X4224D01*
X4480D02*
X4597D01*
X4794D02*
X4853D01*
X4282Y3682D02*
X4224D01*
X4480D02*
X4597D01*
X4794D02*
X4853D01*
X4282Y3663D02*
X4224D01*
X4480D02*
X4597D01*
X4794D02*
X4853D01*
X4282Y3644D02*
X4224D01*
Y3625D02*
X4282D01*
Y3606D02*
X4224D01*
Y3587D02*
X4282D01*
Y3568D02*
X4224D01*
X4480D02*
X4597D01*
X4794D02*
X4853D01*
X4282Y3549D02*
X4224D01*
X4480D02*
X4597D01*
X4794D02*
X4853D01*
X4282Y3530D02*
X4224D01*
X4480D02*
X4597D01*
X4794D02*
X4853D01*
X4282Y3511D02*
X4224D01*
X4480D02*
X4597D01*
X4794D02*
X4853D01*
Y3492D02*
X4224D01*
Y3473D02*
X4853D01*
Y3454D02*
X4224D01*
X4686Y3435D02*
X4853D01*
Y3416D02*
X4686D01*
Y3397D02*
X4853D01*
Y3378D02*
X4686D01*
Y3359D02*
X4853D01*
Y3340D02*
X4686D01*
Y3321D02*
X4853D01*
Y3302D02*
X4686D01*
Y3283D02*
X4853D01*
Y3264D02*
X4686D01*
Y3245D02*
X4853D01*
Y3226D02*
X4686D01*
Y3207D02*
X4853D01*
Y3188D02*
X4686D01*
Y3169D02*
X4853D01*
Y3150D02*
X4686D01*
X4853Y3131D02*
X4358D01*
Y3112D02*
X4377D01*
X4751D02*
X4853D01*
X4377Y3093D02*
X4358D01*
X4751D02*
X4853D01*
X4377Y3074D02*
X4358D01*
X4751D02*
X4853D01*
X4377Y3055D02*
X4358D01*
X4751D02*
X4853D01*
X4377Y3036D02*
X4358D01*
X4751D02*
X4853D01*
X4377Y3017D02*
X4358D01*
X4751D02*
X4853D01*
X4377Y2998D02*
X4358D01*
X4751D02*
X4853D01*
X4377Y2979D02*
X4358D01*
X4751D02*
X4853D01*
X4377Y2960D02*
X4358D01*
X4751D02*
X4853D01*
X4377Y2941D02*
X4358D01*
X4751D02*
X4853D01*
X4377Y2922D02*
X4358D01*
X4751D02*
X4853D01*
X4377Y2903D02*
X4358D01*
X4751D02*
X4853D01*
X4377Y2884D02*
X4358D01*
X4751D02*
X4853D01*
X4377Y2865D02*
X4358D01*
X4751D02*
X4853D01*
X4377Y2846D02*
X4358D01*
X4751D02*
X4853D01*
X4377Y2827D02*
X4358D01*
X4751D02*
X4853D01*
G54D10*
X4868Y3631D02*
Y4027D01*
X4779D01*
Y3942D01*
X4612D01*
Y4027D01*
X4465D01*
Y3942D01*
X4297D01*
Y4149D01*
X4465D01*
Y4064D01*
X4612D01*
Y4149D01*
X4779D01*
Y4064D01*
X4868D01*
Y4443D01*
X6944D01*
Y4630D01*
X4671D01*
Y4237D01*
X4209D01*
Y3420D01*
X4671D01*
Y3154D01*
X4343D01*
Y2810D01*
X4392D01*
Y3105D01*
X4736D01*
Y2810D01*
X4868D01*
Y3594D01*
X4779D01*
Y3509D01*
X4612D01*
Y3594D01*
X4465D01*
Y3509D01*
X4297D01*
Y3716D01*
X4465D01*
Y3631D01*
X4612D01*
Y3716D01*
X4779D01*
Y3631D01*
X4868D01*
X4465Y4037D02*
X4612D01*
Y4054D01*
X4465D01*
Y4037D01*
X4470Y4042D02*
X4607D01*
Y4049D01*
X4470D01*
Y4042D01*
X4607Y4045D02*
X4470D01*
X4465Y4037D02*
X4612D01*
Y4054D01*
X4465D01*
Y4037D01*
X4779D02*
X4868D01*
Y4054D01*
X4779D01*
Y4037D01*
X4784Y4042D02*
X4863D01*
Y4049D01*
X4784D01*
Y4042D01*
X4863Y4045D02*
X4784D01*
X4779Y4037D02*
X4868D01*
Y4054D01*
X4779D01*
Y4037D01*
X4465Y3604D02*
X4612D01*
Y3621D01*
X4465D01*
Y3604D01*
X4470Y3609D02*
X4607D01*
Y3616D01*
X4470D01*
Y3609D01*
X4607Y3612D02*
X4470D01*
X4465Y3604D02*
X4612D01*
Y3621D01*
X4465D01*
Y3604D01*
X4779D02*
X4868D01*
Y3621D01*
X4779D01*
Y3604D01*
X4784Y3609D02*
X4863D01*
Y3616D01*
X4784D01*
Y3609D01*
X4863Y3612D02*
X4784D01*
X4779Y3604D02*
X4868D01*
Y3621D01*
X4779D01*
Y3604D01*
X3096Y3042D02*
Y2905D01*
X3144D01*
Y3042D01*
X3096D01*
X3101Y3037D02*
Y2910D01*
X3139D01*
Y3037D01*
X3101D01*
G54D11*
X3111Y3027D02*
Y2920D01*
X3129D01*
Y3027D01*
X3111D01*
X3120Y3027D02*
Y2920D01*
G54D10*
X3096Y3042D02*
Y2905D01*
X3144D01*
Y3042D01*
X3096D01*
Y2796D02*
Y2708D01*
X3144D01*
Y2796D01*
X3096D01*
X3101Y2791D02*
Y2713D01*
X3139D01*
Y2791D01*
X3101D01*
G54D11*
X3111Y2781D02*
Y2723D01*
X3129D01*
Y2781D01*
X3111D01*
X3120Y2781D02*
Y2723D01*
G54D10*
X3096Y2796D02*
Y2708D01*
X3144D01*
Y2796D01*
X3096D01*
Y2599D02*
Y2511D01*
X3144D01*
Y2599D01*
X3096D01*
X3101Y2594D02*
Y2516D01*
X3139D01*
Y2594D01*
X3101D01*
G54D11*
X3111Y2584D02*
Y2526D01*
X3129D01*
Y2584D01*
X3111D01*
X3120Y2584D02*
Y2526D01*
G54D10*
X3096Y2599D02*
Y2511D01*
X3144D01*
Y2599D01*
X3096D01*
Y2403D02*
Y2314D01*
X3144D01*
Y2403D01*
X3096D01*
X3101Y2398D02*
Y2319D01*
X3139D01*
Y2398D01*
X3101D01*
G54D11*
X3111Y2388D02*
Y2329D01*
X3129D01*
Y2388D01*
X3111D01*
X3120Y2388D02*
Y2329D01*
G54D10*
X3096Y2403D02*
Y2314D01*
X3144D01*
Y2403D01*
X3096D01*
X3498Y3042D02*
Y2806D01*
X3546D01*
Y3042D01*
X3498D01*
X3503Y3037D02*
Y2811D01*
X3541D01*
Y3037D01*
X3503D01*
G54D11*
X3513Y3027D02*
Y2821D01*
X3531D01*
Y3027D01*
X3513D01*
X3522Y3027D02*
Y2821D01*
G54D10*
X3498Y3042D02*
Y2806D01*
X3546D01*
Y3042D01*
X3498D01*
X3844D02*
Y2905D01*
X3892D01*
Y3042D01*
X3844D01*
X3849Y3037D02*
Y2910D01*
X3887D01*
Y3037D01*
X3849D01*
G54D11*
X3859Y3027D02*
Y2920D01*
X3877D01*
Y3027D01*
X3859D01*
X3868Y3027D02*
Y2920D01*
G54D10*
X3844Y3042D02*
Y2905D01*
X3892D01*
Y3042D01*
X3844D01*
Y2796D02*
Y2708D01*
X3892D01*
Y2796D01*
X3844D01*
X3849Y2791D02*
Y2713D01*
X3887D01*
Y2791D01*
X3849D01*
G54D11*
X3859Y2781D02*
Y2723D01*
X3877D01*
Y2781D01*
X3859D01*
X3868Y2781D02*
Y2723D01*
G54D10*
X3844Y2796D02*
Y2708D01*
X3892D01*
Y2796D01*
X3844D01*
Y2599D02*
Y2511D01*
X3892D01*
Y2599D01*
X3844D01*
X3849Y2594D02*
Y2516D01*
X3887D01*
Y2594D01*
X3849D01*
G54D11*
X3859Y2584D02*
Y2526D01*
X3877D01*
Y2584D01*
X3859D01*
X3868Y2584D02*
Y2526D01*
G54D10*
X3844Y2599D02*
Y2511D01*
X3892D01*
Y2599D01*
X3844D01*
Y2403D02*
Y2314D01*
X3892D01*
Y2403D01*
X3844D01*
X3849Y2398D02*
Y2319D01*
X3887D01*
Y2398D01*
X3849D01*
G54D11*
X3859Y2388D02*
Y2329D01*
X3877D01*
Y2388D01*
X3859D01*
X3868Y2388D02*
Y2329D01*
G54D10*
X3844Y2403D02*
Y2314D01*
X3892D01*
Y2403D01*
X3844D01*
M02*

