G75*
%IPPOS*%
%FSLAX44Y44*%
%MOIN*%
%ADD10C,0.00100*%
%ADD11C,0.00200*%
%ADD12C,0.00400*%
%ADD13C,0.00800*%
%ADD14C,0.01500*%
%ADD15C,0.02500*%
%ADD16C,0.04000*%
%ADD17C,0.15000*%
%ADD18C,0.50000*%
%ADD19C,0.30000*%
%ADD20C,16.16080*%
%ADD21C,0.01181*%
%ADD22C,0.01969*%
%LNGB-PTH*%
%LPD*%
G54D21*
X3416Y2654D03*
X3573Y2841D03*
Y2654D03*
Y2466D03*
X3416Y2841D03*
Y2466D03*
X3573Y2309D03*
X3416D03*
X3573Y2998D03*
Y2151D03*
X3416D03*
Y2998D03*
G54D22*
X6759Y7815D03*
X6320Y7815D03*
X5880D03*
X5440Y7815D03*
X6759Y8258D03*
X6319Y8258D03*
X5880D03*
X5440Y8258D03*
X6759Y7372D03*
X6320Y7372D03*
X5880D03*
X5440Y7372D03*
X6759Y10486D03*
X6320Y10486D03*
X5880D03*
X5440Y10486D03*
X6759Y10043D03*
X6319D03*
X5880Y10043D03*
X5440D03*
X6759Y10929D03*
X6320Y10929D03*
X5880D03*
X5440Y10929D03*
X230Y3791D03*
X669D03*
X1109Y3792D03*
X1549D03*
X230Y3348D03*
X669Y3349D03*
X1109D03*
X1549Y3349D03*
X230Y4234D03*
X669D03*
X1109Y4234D03*
X1548D03*
X230Y1121D03*
X669D03*
X1109Y1121D03*
X1549D03*
X230Y1564D03*
X669D03*
X1109Y1563D03*
X1549D03*
X230Y678D03*
X669D03*
X1109Y678D03*
X1548D03*
X6759Y1122D03*
X6320D03*
X5880Y1122D03*
X5440D03*
X6759Y1565D03*
X6319D03*
X5880Y1565D03*
X5440D03*
X6759Y679D03*
X6320D03*
X5880Y679D03*
X5440D03*
X6759Y3793D03*
X6320Y3793D03*
X5880D03*
X5440Y3793D03*
X6759Y3350D03*
X6319Y3350D03*
X5880D03*
X5440Y3350D03*
X6759Y4236D03*
X6320D03*
X5880Y4236D03*
X5440D03*
G54D21*
X236Y2849D03*
X630D03*
X1024D03*
X1417D03*
X6790Y2064D03*
X5609D03*
X6003D03*
X6397D03*
X4428D03*
X4822D03*
X5215D03*
X4034D03*
X1811Y2849D03*
X2205D03*
X236Y2064D03*
X630D03*
X1024D03*
X1417D03*
X1811D03*
X2205D03*
X2598D03*
X4978Y2849D03*
X6752Y9602D03*
X5571D03*
X5965D03*
X6359D03*
X4784D03*
X5178D03*
X6752Y8698D03*
X5571D03*
X5965D03*
X6359D03*
X4800D03*
X5178D03*
X4390Y9602D03*
X6752Y6730D03*
Y6336D03*
Y5942D03*
Y5548D03*
Y5155D03*
Y4761D03*
X236Y6730D03*
Y6336D03*
Y5942D03*
Y5548D03*
Y5155D03*
Y4761D03*
X3751Y4022D03*
Y3629D03*
Y3235D03*
X5845Y2849D03*
X5373D03*
X4852Y4211D03*
Y3817D03*
Y3424D03*
X5894Y11565D03*
X1170D03*
X2745D03*
X6713Y2849D03*
X6241D03*
G54D22*
X623Y15315D03*
X1063D03*
X1503Y15315D03*
X1942D03*
X623Y14872D03*
X1063D03*
X1503Y14872D03*
X1942D03*
X623Y15758D03*
X1063D03*
X1503Y15758D03*
X1942D03*
X623Y12644D03*
X1063D03*
X1503Y12644D03*
X1942D03*
X623Y13087D03*
X1063Y13087D03*
X1503D03*
X1942Y13087D03*
X623Y12201D03*
X1063D03*
X1503Y12201D03*
X1942D03*
X6366Y12646D03*
X5926D03*
X5487Y12646D03*
X5047D03*
X6366Y13089D03*
X5926D03*
X5487Y13089D03*
X5047D03*
X6366Y12203D03*
X5926D03*
X5487Y12203D03*
X5047D03*
X6366Y15317D03*
X5926D03*
X5487Y15317D03*
X5047D03*
X6366Y14874D03*
X5926D03*
X5487D03*
X5047Y14874D03*
X6366Y15759D03*
X5926D03*
X5487Y15760D03*
X5047D03*
G54D21*
X668Y14432D03*
Y13529D03*
X1061D03*
X1455D03*
X1849D03*
X4035D03*
X4429D03*
X4822D03*
X5216D03*
X5610D03*
X6003D03*
X6397D03*
X2243D03*
X2636D03*
X3030D03*
X1061Y14432D03*
X1455D03*
X1849D03*
X4035D03*
X4429D03*
X4822D03*
X5216D03*
X5610D03*
X6003D03*
X6397D03*
X2243D03*
X2636D03*
X3030D03*
X668Y16199D03*
X1061D03*
X1455D03*
X1849D03*
X4035D03*
X4429D03*
X4822D03*
X5216D03*
X5610D03*
X6003D03*
X6397D03*
X2243D03*
X2636D03*
X3030D03*
X3532D03*
X3495Y15316D03*
X4271Y15538D03*
X2718Y15537D03*
Y15094D03*
X4271Y15095D03*
X3532Y14432D03*
Y13529D03*
X3494Y12645D03*
X4271Y12867D03*
X2718Y12866D03*
Y12423D03*
X4271Y12424D03*
X274Y236D03*
X668D03*
X1061D03*
X1455D03*
X4429D03*
X4822D03*
X5216D03*
X5610D03*
X6003D03*
X6397D03*
X6791D03*
X1849D03*
X2243D03*
X2636D03*
X3030D03*
X3532D03*
X4035D03*
X2655Y2882D03*
X2992Y2064D03*
X3495Y1120D03*
X4271Y898D03*
X2718Y899D03*
Y1342D03*
X4271Y1341D03*
X236Y11454D03*
X3751Y4810D03*
Y4416D03*
Y5597D03*
Y5204D03*
Y6385D03*
Y5991D03*
Y7172D03*
Y6778D03*
Y7959D03*
Y7566D03*
Y8747D03*
Y8353D03*
Y9534D03*
Y9141D03*
X6753Y11454D03*
X1170Y6157D03*
X1957Y5256D03*
X5819Y6157D03*
X4319Y11565D03*
X4800Y4810D03*
Y4416D03*
Y5597D03*
Y5204D03*
Y6385D03*
Y5991D03*
Y7172D03*
Y6778D03*
Y7959D03*
Y7566D03*
Y8353D03*
G54D22*
X230Y10486D03*
X669Y10486D03*
X1109D03*
X1548Y10486D03*
X230Y10043D03*
X669D03*
X1109Y10043D03*
X1549D03*
X230Y10929D03*
X669Y10929D03*
X1109D03*
X1548Y10929D03*
G54D21*
X236Y9602D03*
X1417D03*
X1024D03*
X630D03*
X2205D03*
X1811D03*
X2598D03*
X2992D03*
G54D22*
X230Y7815D03*
X669Y7815D03*
X1109D03*
X1548Y7815D03*
X230Y8258D03*
X669Y8258D03*
X1109D03*
X1549Y8258D03*
X230Y7372D03*
X669Y7372D03*
X1109D03*
X1548Y7372D03*
G54D21*
X236Y8698D03*
X1417D03*
X1024D03*
X630D03*
X1811D03*
X2205D03*
X2711D03*
Y6385D03*
Y7172D03*
Y6778D03*
Y7959D03*
Y7566D03*
Y8353D03*
X5545Y5256D03*
X2711Y5991D03*
Y5597D03*
Y5204D03*
Y4810D03*
Y4416D03*
Y4022D03*
Y3235D03*
M02*

