G75*
%IPPOS*%
%FSLAX44Y44*%
%MOIN*%
%ADD10C,0.00100*%
%ADD11C,0.00200*%
%ADD12C,0.00400*%
%ADD13C,0.00800*%
%ADD14C,0.01500*%
%ADD15C,0.02500*%
%ADD16C,0.04000*%
%ADD17C,0.15000*%
%ADD18C,0.50000*%
%ADD19C,0.30000*%
%ADD20C,16.16080*%
%ADD21C,0.01181*%
%ADD22C,0.01969*%
%LNGB-SIL1*%
%LPD*%
G54D11*
X2523Y10395D02*
X2448Y10198D01*
X2523Y10367D02*
X2457Y10198D01*
X2448D01*
X2523Y10367D02*
X2588Y10198D01*
X2598D01*
X2523Y10395D02*
X2598Y10198D01*
X2476Y10254D02*
X2570D01*
X2467Y10245D02*
X2579D01*
X2673Y10358D02*
X2692Y10367D01*
X2720Y10395D01*
Y10198D01*
X2673Y10358D02*
Y10348D01*
X2692Y10358D01*
X2710Y10376D01*
Y10198D01*
X2720D01*
X2860Y10358D02*
X2879Y10367D01*
X2907Y10395D01*
Y10198D01*
X2860Y10358D02*
Y10348D01*
X2879Y10358D01*
X2898Y10376D01*
Y10198D01*
X2907D01*
X3113Y10367D02*
Y10198D01*
X3123D01*
Y10395D02*
Y10198D01*
Y10395D02*
X3020Y10245D01*
X3160D01*
X3113Y10367D02*
X3029Y10245D01*
Y10254D02*
X3160D01*
Y10245D01*
X3217Y10395D02*
Y10198D01*
X3226Y10386D02*
Y10208D01*
X3217Y10395D02*
X3282D01*
X3310Y10386D01*
X3329Y10367D01*
X3338Y10348D01*
X3348Y10320D01*
Y10273D01*
X3338Y10245D01*
X3329Y10226D01*
X3310Y10208D01*
X3282Y10198D01*
X3217D01*
X3226Y10386D02*
X3282D01*
X3310Y10376D01*
X3320Y10367D01*
X3329Y10348D01*
X3338Y10320D01*
Y10273D01*
X3329Y10245D01*
X3320Y10226D01*
X3310Y10217D01*
X3282Y10208D01*
X3226D01*
X3460Y10395D02*
X3432Y10386D01*
X3413Y10358D01*
X3404Y10311D01*
Y10283D01*
X3413Y10236D01*
X3432Y10208D01*
X3460Y10198D01*
X3479D01*
X3507Y10208D01*
X3526Y10236D01*
X3535Y10283D01*
Y10311D01*
X3526Y10358D01*
X3507Y10386D01*
X3479Y10395D01*
X3460D01*
X3441Y10386D02*
X3423Y10358D01*
X3413Y10311D01*
Y10283D01*
X3423Y10236D01*
X3441Y10208D01*
X3432Y10217D02*
X3460Y10208D01*
X3479D01*
X3507Y10217D01*
X3498Y10208D02*
X3516Y10236D01*
X3526Y10283D01*
Y10311D01*
X3516Y10358D01*
X3498Y10386D01*
X3507Y10376D02*
X3479Y10386D01*
X3460D01*
X3432Y10376D01*
X3620Y10358D02*
X3638Y10367D01*
X3666Y10395D01*
Y10198D01*
X3620Y10358D02*
Y10348D01*
X3638Y10358D01*
X3657Y10376D01*
Y10198D01*
X3666D01*
X3835Y10395D02*
X3807Y10386D01*
X3788Y10358D01*
X3779Y10311D01*
Y10283D01*
X3788Y10236D01*
X3807Y10208D01*
X3835Y10198D01*
X3854D01*
X3882Y10208D01*
X3901Y10236D01*
X3910Y10283D01*
Y10311D01*
X3901Y10358D01*
X3882Y10386D01*
X3854Y10395D01*
X3835D01*
X3816Y10386D02*
X3798Y10358D01*
X3788Y10311D01*
Y10283D01*
X3798Y10236D01*
X3816Y10208D01*
X3807Y10217D02*
X3835Y10208D01*
X3854D01*
X3882Y10217D01*
X3873Y10208D02*
X3891Y10236D01*
X3901Y10283D01*
Y10311D01*
X3891Y10358D01*
X3873Y10386D01*
X3882Y10376D02*
X3854Y10386D01*
X3835D01*
X3807Y10376D01*
X3957Y10179D02*
X4145D01*
Y10170D01*
X3957D01*
Y10179D01*
X4248Y10395D02*
X4220Y10386D01*
X4201Y10358D01*
X4191Y10311D01*
Y10283D01*
X4201Y10236D01*
X4220Y10208D01*
X4248Y10198D01*
X4266D01*
X4295Y10208D01*
X4313Y10236D01*
X4323Y10283D01*
Y10311D01*
X4313Y10358D01*
X4295Y10386D01*
X4266Y10395D01*
X4248D01*
X4229Y10386D02*
X4210Y10358D01*
X4201Y10311D01*
Y10283D01*
X4210Y10236D01*
X4229Y10208D01*
X4220Y10217D02*
X4248Y10208D01*
X4266D01*
X4295Y10217D01*
X4285Y10208D02*
X4304Y10236D01*
X4313Y10283D01*
Y10311D01*
X4304Y10358D01*
X4285Y10386D01*
X4295Y10376D02*
X4266Y10386D01*
X4248D01*
X4220Y10376D01*
X4435Y10395D02*
X4407Y10386D01*
X4388Y10358D01*
X4379Y10311D01*
Y10283D01*
X4388Y10236D01*
X4407Y10208D01*
X4435Y10198D01*
X4454D01*
X4482Y10208D01*
X4501Y10236D01*
X4510Y10283D01*
Y10311D01*
X4501Y10358D01*
X4482Y10386D01*
X4454Y10395D01*
X4435D01*
X4416Y10386D02*
X4398Y10358D01*
X4388Y10311D01*
Y10283D01*
X4398Y10236D01*
X4416Y10208D01*
X4407Y10217D02*
X4435Y10208D01*
X4454D01*
X4482Y10217D01*
X4473Y10208D02*
X4491Y10236D01*
X4501Y10283D01*
Y10311D01*
X4491Y10358D01*
X4473Y10386D01*
X4482Y10376D02*
X4454Y10386D01*
X4435D01*
X4407Y10376D01*
G54D10*
X3691Y10585D02*
Y10659D01*
X3783D01*
Y11173D01*
X2898D01*
Y10793D01*
X2962D01*
Y11108D01*
X3718D01*
Y10724D01*
X2898D01*
Y10659D01*
X2992D01*
Y10585D01*
X3057D01*
Y10659D01*
X3193D01*
Y10585D01*
X3258D01*
Y10659D01*
X3425D01*
Y10585D01*
X3490D01*
Y10659D01*
X3626D01*
Y10585D01*
X3691D01*
X3686Y10590D02*
Y10664D01*
X3778D01*
Y11168D01*
X2903D01*
Y10798D01*
X2957D01*
Y11113D01*
X3723D01*
Y10719D01*
X2903D01*
Y10664D01*
X2997D01*
Y10590D01*
X3052D01*
Y10664D01*
X3198D01*
Y10590D01*
X3253D01*
Y10664D01*
X3430D01*
Y10590D01*
X3485D01*
Y10664D01*
X3631D01*
Y10590D01*
X3686D01*
G54D11*
X3676Y10600D02*
Y10674D01*
X3768D01*
Y11158D01*
X2913D01*
Y10808D01*
X2947D01*
Y11123D01*
X3733D01*
Y10709D01*
X2913D01*
Y10674D01*
X3007D01*
Y10600D01*
X3042D01*
Y10674D01*
X3208D01*
Y10600D01*
X3243D01*
Y10674D01*
X3440D01*
Y10600D01*
X3475D01*
Y10674D01*
X3641D01*
Y10600D01*
X3676D01*
X2947Y10879D02*
X2913D01*
X3733D02*
X3768D01*
X2947Y10898D02*
X2913D01*
X3733D02*
X3768D01*
X2947Y10917D02*
X2913D01*
X3733D02*
X3768D01*
X2947Y10936D02*
X2913D01*
X3733D02*
X3768D01*
X2947Y10955D02*
X2913D01*
X3733D02*
X3768D01*
X2947Y10974D02*
X2913D01*
X3733D02*
X3768D01*
X2947Y10993D02*
X2913D01*
X3733D02*
X3768D01*
X2947Y11012D02*
X2913D01*
X3733D02*
X3768D01*
X2947Y11031D02*
X2913D01*
X3733D02*
X3768D01*
X2947Y11050D02*
X2913D01*
X3733D02*
X3768D01*
X2947Y11069D02*
X2913D01*
X3733D02*
X3768D01*
X2947Y11088D02*
X2913D01*
X3733D02*
X3768D01*
X2947Y11107D02*
X2913D01*
X3733D02*
X3768D01*
Y11126D02*
X2913D01*
Y11145D02*
X3768D01*
X2947Y10860D02*
X2913D01*
X3733D02*
X3768D01*
X2947Y10841D02*
X2913D01*
X3733D02*
X3768D01*
X2947Y10822D02*
X2913D01*
X3733D02*
X3768D01*
Y10803D02*
X3733D01*
Y10784D02*
X3768D01*
Y10765D02*
X3733D01*
Y10746D02*
X3768D01*
Y10727D02*
X3733D01*
X3768Y10708D02*
X2913D01*
Y10689D02*
X3768D01*
X3042Y10670D02*
X3007D01*
X3208D02*
X3243D01*
X3440D02*
X3475D01*
X3641D02*
X3676D01*
X3042Y10651D02*
X3007D01*
X3208D02*
X3243D01*
X3440D02*
X3475D01*
X3641D02*
X3676D01*
X3042Y10632D02*
X3007D01*
X3208D02*
X3243D01*
X3440D02*
X3475D01*
X3641D02*
X3676D01*
X3042Y10613D02*
X3007D01*
X3208D02*
X3243D01*
X3440D02*
X3475D01*
X3641D02*
X3676D01*
G54D10*
X3691Y10585D02*
Y10659D01*
X3783D01*
Y11173D01*
X2898D01*
Y10793D01*
X2962D01*
Y11108D01*
X3718D01*
Y10724D01*
X2898D01*
Y10659D01*
X2992D01*
Y10585D01*
X3057D01*
Y10659D01*
X3193D01*
Y10585D01*
X3258D01*
Y10659D01*
X3425D01*
Y10585D01*
X3490D01*
Y10659D01*
X3626D01*
Y10585D01*
X3691D01*
G54D11*
X3910Y11026D02*
Y10829D01*
X3920Y10979D02*
Y10829D01*
X3910D01*
X3920Y10979D02*
X3985Y10829D01*
X3910Y11026D02*
X3985Y10857D01*
X4060Y11026D02*
X3985Y10857D01*
X4051Y10979D02*
X3985Y10829D01*
X4051Y10979D02*
Y10829D01*
X4060D01*
Y11026D02*
Y10829D01*
X4267Y10979D02*
X4257Y10998D01*
X4239Y11016D01*
X4220Y11026D01*
X4182D01*
X4164Y11016D01*
X4145Y10998D01*
X4135Y10979D01*
X4126Y10951D01*
Y10904D01*
X4135Y10876D01*
X4145Y10857D01*
X4164Y10838D01*
X4182Y10829D01*
X4220D01*
X4239Y10838D01*
X4257Y10857D01*
X4267Y10876D01*
Y10979D02*
X4257D01*
X4248Y10998D01*
X4239Y11007D01*
X4220Y11016D01*
X4182D01*
X4164Y11007D01*
X4145Y10979D01*
X4135Y10951D01*
Y10904D01*
X4145Y10876D01*
X4164Y10848D01*
X4182Y10838D01*
X4220D01*
X4239Y10848D01*
X4248Y10857D01*
X4257Y10876D01*
X4267D01*
X4332Y11026D02*
Y10829D01*
Y11026D02*
X4342D01*
Y10838D01*
D02*
X4445D01*
Y10829D01*
X4332D02*
X4445D01*
M02*

